<svg width="77" height="65" viewBox="0 0 77 65" fill="none" xmlns="http://www.w3.org/2000/svg">
<g clip-path="url(#clip0_1085_4945)">
<ellipse opacity="0.5" cx="38.1961" cy="58.1375" rx="59.5652" ry="10.3153" fill="url(#paint0_radial_1085_4945)"/>
<g clip-path="url(#clip1_1085_4945)">
<g filter="url(#filter0_i_1085_4945)">
<path d="M26.0377 25.9666C26.0377 25.9666 26.6493 26.5147 27.3922 26.4277C28.1352 26.3406 28.5374 25.941 28.5374 25.941C28.5374 25.941 29.2404 25.1051 29.6782 25.2118C30.1161 25.3185 30.7048 25.4682 31.3672 25.1111C32.0402 24.7405 32.2865 24.1526 32.2865 24.1526C32.2865 24.1526 32.623 23.5056 33.1842 23.5248C33.7453 23.5441 34.4247 23.3308 34.7396 23.0144C35.0545 22.698 35.2912 22.4393 35.3734 22.0044C35.4556 21.5694 35.6555 21.2057 36.2941 21.0579C36.9327 20.9102 37.5315 20.4268 37.7074 19.8593C37.8832 19.2918 37.7552 18.7235 37.7552 18.7235C37.7552 18.7235 37.9214 18.4853 38.0955 18.4163C38.2816 18.3458 39.2455 17.6617 39.3021 17.011C39.3588 16.3602 39.0805 15.6515 39.0805 15.6515C39.0805 15.6515 40.6315 14.692 39.2547 12.6051C39.2547 12.6051 39.7116 10.7165 37.8105 9.84562C37.8105 9.84562 37.3066 7.94812 35.4896 8.40415C35.4896 8.40415 34.7519 6.99584 33.2445 7.70724C32.9577 7.85023 32.7286 7.86493 32.7286 7.86493C32.7286 7.86493 32.3794 7.48052 31.9804 7.39361C31.5813 7.30671 31.3459 7.37076 31.0069 7.48341C30.6679 7.59606 30.0867 8.12599 29.737 8.04545C29.5036 8.02419 29.5366 7.78943 28.6485 7.88138C28.4715 7.92642 27.912 8.12569 27.502 8.56262C27.092 8.99956 26.8036 8.92399 26.8036 8.92399C26.8036 8.92399 26.1543 8.87857 25.9189 8.94262C25.6835 9.00667 25.1105 9.19535 24.6148 9.93401C24.3549 10.3047 23.9398 10.3899 23.9398 10.3899C23.9398 10.3899 22.8528 10.4444 22.2999 11.214C21.8217 11.7926 22.3144 11.747 21.4681 12.2959C20.9199 12.591 20.6589 12.4393 20.0216 13.3161C19.7399 13.8109 20.103 13.902 19.7382 14.3094C19.3733 14.7167 19.1145 14.6863 18.7997 15.0027C18.4848 15.3191 17.8445 15.0417 18.3497 16.7447C18.3497 16.7447 18.1441 17.0604 17.7305 17.3641C17.3169 17.6678 17.237 18.4306 17.3105 18.6407C17.372 18.8523 17.3382 18.9778 17.6346 19.4291C17.6346 19.4291 16.3982 20.5827 17.9459 22.1634C17.9459 22.1634 17.8182 24.062 19.8291 24.6284C19.8291 24.6284 20.8569 26.744 22.637 25.7698C22.637 25.7698 23.2934 27.0053 24.7721 26.5646C25.5945 26.2252 25.6063 26.0172 26.0377 25.9666Z" fill="url(#paint1_radial_1085_4945)"/>
</g>
<g filter="url(#filter1_d_1085_4945)">
<path d="M36.9467 9.87337C37.3386 9.90043 37.9237 9.91706 37.8755 10.4333C37.828 10.8521 37.1862 11.2798 37.5426 11.7243C37.7923 11.9868 38.3745 11.9795 38.3461 12.4569C38.346 13.1741 36.9818 13.5526 37.4886 14.3442C37.6163 14.4994 37.7919 14.6491 37.8055 14.8663C37.8169 14.9622 37.7937 15.0743 37.7452 15.1772C37.4548 15.9041 36.3588 15.9838 36.1741 16.7834C36.1004 17.0838 36.2902 17.3533 36.2165 17.6537C36.1153 18.0302 35.7857 18.324 35.4419 18.498C35.1538 18.629 34.8345 18.7028 34.5492 18.8578C34.2293 19.0289 33.9477 19.3172 33.8437 19.6697C33.7825 19.8714 33.7588 20.0808 33.6602 20.2747C33.4513 20.6638 33.0469 20.9421 32.6093 21.0419C32.1089 21.1248 31.5598 21.104 31.152 21.4556C30.8273 21.6881 30.6782 22.0702 30.4473 22.3769C30.0446 22.8738 29.3667 23.099 28.7589 22.8905C28.369 22.7781 27.9476 22.9125 27.6095 23.1344C27.3179 23.3388 27.1095 23.6306 26.8284 23.8215C26.3685 24.1428 25.7722 24.2369 25.3348 23.8261C25.0788 23.613 24.7151 23.6191 24.4121 23.7275C23.9005 23.9211 23.4499 24.4236 22.8726 24.3696C22.6526 24.3588 22.4587 24.26 22.3627 24.0646C22.2709 23.9051 22.2348 23.7027 22.0768 23.5996C21.7446 23.3589 21.2929 23.5455 20.9434 23.6715C20.6073 23.8081 20.1535 23.8733 19.9325 23.5467C19.7398 23.2532 20.0213 22.7583 19.6905 22.5296C19.3569 22.2769 18.8553 22.5544 18.4999 22.4258C18.3223 22.3615 18.2079 22.2168 18.1972 22.0236C18.1609 21.6145 18.706 21.0888 18.2877 20.7366C18.0866 20.5778 17.718 20.6452 17.5381 20.4596C17.1401 19.9713 17.8121 19.4915 17.9915 19.0572C18.2805 18.3184 17.3919 18.5075 17.547 17.8693C17.6903 17.2326 18.5852 16.9942 18.6389 16.3193C18.6444 16.1606 18.5569 16.0371 18.5039 15.8975C18.3412 15.3452 18.9604 14.9323 19.381 14.6886C19.7206 14.4787 20.1072 14.1538 20.0935 13.73C20.0529 13.2849 20.35 12.922 20.7135 12.7092C20.9509 12.5599 21.2342 12.4903 21.4864 12.3635C21.8302 12.1895 22.1239 11.8999 22.2385 11.5339C22.353 11.168 22.6467 10.8784 22.9799 10.7178C23.1857 10.6086 23.4239 10.5686 23.6501 10.53C24.092 10.4661 24.5111 10.2104 24.7589 9.84101C25.025 9.42088 25.4462 9.07984 25.9494 9.02094C26.189 8.9929 26.4041 9.06498 26.6437 9.03694C27.2202 8.98162 27.587 8.48891 28.0364 8.18104C28.3309 8.0007 28.7283 7.8691 29.0583 7.98851C29.9857 8.5364 30.5444 7.51068 31.3993 7.44709C32.133 7.38553 31.8651 8.09763 32.7207 7.93672C33.1717 7.84747 33.6409 7.50082 34.116 7.61539C34.2909 7.65571 34.4355 7.74819 34.4687 7.92664C34.5063 8.14105 34.5242 8.39424 34.7646 8.47551C35.1616 8.64786 35.6512 8.37175 36.0594 8.43338C36.593 8.52895 36.5475 8.8625 36.4161 9.29119C36.3347 9.62894 36.6295 9.86186 36.9467 9.87337ZM22.9926 15.3357C23.1925 14.9719 22.9441 14.7214 22.565 14.8022C22.1724 14.8725 21.5786 15.2945 21.7419 15.7495C21.8929 15.9992 22.2481 15.9212 22.4778 15.8092C22.6835 15.7001 22.8716 15.5443 22.9926 15.3357ZM25.6677 20.1768C25.8373 19.8652 25.6763 19.5315 25.3112 19.5256C24.8382 19.5323 24.3106 19.898 24.2462 20.3796C24.2149 20.8331 24.8 20.8497 25.0973 20.6933C25.3389 20.58 25.5495 20.4094 25.6677 20.1768ZM30.362 10.7899C30.4619 10.608 30.423 10.3816 30.2079 10.3095C29.83 10.1957 29.3721 10.4316 29.1412 10.7383C28.8983 11.0463 29.0233 11.3842 29.4455 11.3591C29.8064 11.329 30.1819 11.1149 30.362 10.7899ZM33.6697 15.2287C33.8365 14.8932 33.5853 14.6187 33.223 14.6368C32.8234 14.6471 32.4148 14.8894 32.2389 15.2503C32.0082 15.7636 32.5652 15.9537 32.9717 15.7967C33.2642 15.7017 33.5452 15.5108 33.6697 15.2287ZM25.7264 12.5723C26.0117 12.4174 26.413 11.9085 25.9878 11.703C25.5548 11.5348 24.6369 12.092 24.8552 12.6014C25.069 12.8681 25.477 12.7231 25.7264 12.5723ZM27.7134 15.707C28.5925 15.1301 28.0886 14.3624 27.2037 14.8914C26.3112 15.4578 26.8166 16.2375 27.7134 15.707ZM22.2806 19.0658C22.5511 18.8883 22.8764 18.5585 22.7274 18.2234C22.407 17.7746 21.6243 18.2431 21.4273 18.6308C21.1015 19.2646 21.8537 19.3589 22.2806 19.0658ZM33.1462 12.3482C33.4062 12.1841 33.7181 11.8437 33.5254 11.5502C33.1952 11.2241 32.6069 11.4875 32.3252 11.7757C31.7176 12.4911 32.5947 12.7167 33.1462 12.3482ZM29.939 19.215C30.8752 18.607 30.3106 17.7371 29.3567 18.2985C28.4205 18.9064 28.9852 19.7764 29.939 19.215Z" fill="url(#paint2_radial_1085_4945)"/>
<path d="M18.7027 15.8311C18.6548 15.6576 18.718 15.4926 18.8778 15.3194C19.0418 15.1417 19.2777 14.9907 19.4863 14.8698L19.4863 14.8699L19.4914 14.8668C19.6697 14.7565 19.8716 14.6096 20.029 14.4259C20.187 14.2414 20.312 14.0051 20.3029 13.7235L20.3032 13.7235L20.3021 13.7112C20.2719 13.3801 20.492 13.0817 20.8196 12.89L20.8196 12.8901L20.8253 12.8865C20.9261 12.8231 21.0405 12.7743 21.1714 12.7228C21.1921 12.7147 21.2135 12.7064 21.2353 12.6979C21.3452 12.6552 21.4663 12.6082 21.5808 12.5507L21.5813 12.5504C21.9616 12.358 22.3029 12.0298 22.4384 11.5968C22.5323 11.297 22.7786 11.0474 23.0711 10.9065L23.0712 10.9067L23.0784 10.9028C23.2485 10.8126 23.451 10.7765 23.6831 10.7369C24.1802 10.6642 24.6514 10.3775 24.933 9.95784L24.933 9.95788L24.936 9.95322C25.1794 9.56884 25.5516 9.27842 25.974 9.22898C26.0682 9.21796 26.16 9.22613 26.2766 9.23742L26.284 9.23814C26.3928 9.24869 26.5247 9.26149 26.6661 9.24523C27.0108 9.21159 27.2836 9.04757 27.5154 8.86998C27.6111 8.79658 27.7044 8.71718 27.7926 8.64201C27.8106 8.62671 27.8284 8.61158 27.8459 8.59672C27.9505 8.50806 28.0493 8.42667 28.1506 8.35691C28.4203 8.1929 28.7351 8.10364 28.9709 8.17986C29.2318 8.32942 29.479 8.37674 29.7168 8.35236C29.9539 8.32805 30.1663 8.23379 30.3558 8.13139C30.4406 8.08559 30.5247 8.03589 30.6052 7.9883C30.6149 7.98257 30.6246 7.97687 30.6341 7.97122C30.7249 7.91764 30.8119 7.86697 30.8996 7.82171C31.0751 7.73118 31.2414 7.66889 31.4152 7.65598L31.4172 7.65581C31.5651 7.6434 31.6398 7.67086 31.6863 7.69917C31.7374 7.73023 31.7731 7.77111 31.834 7.84099C31.8413 7.84927 31.8488 7.85796 31.8568 7.86708C31.9262 7.9462 32.023 8.05082 32.1781 8.11358C32.3337 8.17658 32.5211 8.18745 32.7597 8.14258L32.7617 8.14219C32.8916 8.11648 33.0183 8.07321 33.1363 8.02876C33.1889 8.00896 33.2369 7.99006 33.2836 7.97172C33.3491 7.94597 33.4119 7.92131 33.4802 7.89681C33.7054 7.81612 33.8921 7.7768 34.0672 7.81901L34.0692 7.81948C34.1367 7.83505 34.1838 7.85764 34.2135 7.88173C34.2393 7.90268 34.2556 7.92712 34.2626 7.96381C34.2652 7.97865 34.2678 7.9951 34.2707 8.01279C34.2851 8.10189 34.3046 8.22256 34.3455 8.32704C34.3997 8.46581 34.5003 8.60408 34.6892 8.67097C34.9494 8.78079 35.2259 8.74122 35.4449 8.70217C35.4809 8.69574 35.5154 8.68936 35.5487 8.68321C35.7408 8.6477 35.8896 8.6202 36.0256 8.64008C36.1379 8.66051 36.1999 8.69006 36.2334 8.71509C36.2626 8.73698 36.2765 8.75981 36.2844 8.79002C36.2938 8.8259 36.2959 8.879 36.2838 8.95742C36.2718 9.03519 36.2479 9.12482 36.2158 9.22956L36.2154 9.22945L36.2124 9.24183C36.1532 9.48743 36.2333 9.70398 36.3848 9.85353C36.5293 9.99624 36.733 10.0744 36.9357 10.0825C36.9489 10.0835 36.962 10.0843 36.9751 10.0852C37.1704 10.0985 37.3592 10.1113 37.5018 10.1656C37.5735 10.1929 37.6142 10.2243 37.6364 10.2548C37.6555 10.2811 37.6747 10.3255 37.6671 10.4113C37.6598 10.4711 37.6293 10.5449 37.5719 10.6441C37.545 10.6907 37.5152 10.7379 37.4826 10.7894L37.4781 10.7967C37.4447 10.8496 37.4085 10.9071 37.3753 10.9657C37.3102 11.0804 37.2442 11.2195 37.2291 11.373C37.2128 11.5372 37.2561 11.7017 37.3792 11.8551L37.3847 11.8621L37.3909 11.8685C37.4798 11.962 37.5905 12.024 37.6856 12.0705C37.7265 12.0905 37.7686 12.1096 37.8074 12.1271C37.8143 12.1302 37.8211 12.1333 37.8277 12.1363C37.8733 12.157 37.9141 12.1759 37.9517 12.1955C38.0288 12.2359 38.075 12.2709 38.1019 12.3058C38.1236 12.3339 38.1412 12.3723 38.1369 12.4441L38.1366 12.4441L38.1366 12.4566C38.1366 12.5662 38.0851 12.6782 37.9776 12.8114C37.9005 12.907 37.8116 12.9943 37.7139 13.0902C37.6701 13.1332 37.6246 13.1779 37.5775 13.2259C37.4377 13.3685 37.2849 13.5406 37.2115 13.7453C37.1315 13.9685 37.1529 14.2081 37.3121 14.4569L37.3189 14.4675L37.3268 14.4771C37.3542 14.5104 37.3842 14.5441 37.4112 14.5746C37.4188 14.583 37.4261 14.5913 37.433 14.5992C37.4669 14.6376 37.496 14.6717 37.5209 14.7057C37.5704 14.7732 37.5931 14.8264 37.5964 14.8791L37.5961 14.8791L37.5975 14.8906C37.6031 14.9385 37.5919 15.0109 37.5557 15.0877L37.5553 15.0875L37.5506 15.0993C37.4396 15.3771 37.1792 15.5415 36.8423 15.7542C36.8309 15.7614 36.8194 15.7686 36.8078 15.776C36.4823 15.9817 36.0848 16.2417 35.9703 16.7346C35.9226 16.9304 35.9598 17.1125 35.9873 17.247L35.99 17.2601C36.0202 17.408 36.0367 17.5045 36.0135 17.6014C35.9336 17.895 35.6655 18.149 35.351 18.3091C35.2393 18.3596 35.123 18.4009 34.9965 18.4458C34.9726 18.4542 34.9483 18.4628 34.9237 18.4717C34.7714 18.5261 34.6073 18.5878 34.4496 18.6734C34.0943 18.8636 33.7667 19.1907 33.6429 19.6095C33.6208 19.6824 33.6019 19.7617 33.5849 19.8328C33.5772 19.8651 33.5699 19.8956 33.5629 19.9232C33.5385 20.019 33.5127 20.1017 33.4745 20.1775C33.2986 20.5033 32.9525 20.747 32.5684 20.8363C32.4658 20.8531 32.3609 20.8655 32.2502 20.8785C32.2345 20.8804 32.2188 20.8822 32.2029 20.8841C32.0746 20.8993 31.9393 20.9162 31.8054 20.9424C31.5392 20.9946 31.2629 21.0861 31.0222 21.2908C30.8325 21.4288 30.6992 21.6056 30.5891 21.7735C30.5446 21.8416 30.5057 21.9047 30.4687 21.9647C30.4072 22.0646 30.3508 22.1561 30.2821 22.2477C29.9293 22.6807 29.3427 22.8694 28.8267 22.6924L28.8267 22.6922L28.8167 22.6893C28.345 22.5533 27.8592 22.7198 27.4943 22.9593L27.4943 22.9592L27.4891 22.9629C27.3299 23.0744 27.195 23.2079 27.0755 23.3261L27.0675 23.334C26.9416 23.4586 26.8325 23.5653 26.7105 23.6482L26.7105 23.6482L26.7083 23.6498C26.2916 23.9407 25.8142 23.9891 25.4782 23.6736L25.4784 23.6733L25.4688 23.6652C25.1324 23.3852 24.6798 23.4091 24.3413 23.5302L24.3412 23.5302L24.3377 23.5316C24.1925 23.5865 24.0559 23.6617 23.9294 23.7371C23.8718 23.7715 23.8195 23.8038 23.7688 23.8352C23.7003 23.8776 23.6346 23.9182 23.5623 23.9598C23.3221 24.0979 23.113 24.1817 22.8918 24.161L22.8918 24.1608L22.8825 24.1604C22.7182 24.1523 22.6049 24.0826 22.5507 23.9724L22.5511 23.9722L22.5442 23.9603C22.5274 23.931 22.5117 23.8973 22.4935 23.8556C22.4898 23.847 22.4858 23.8378 22.4816 23.8281C22.4672 23.7947 22.4506 23.7562 22.4332 23.7202C22.3879 23.6262 22.3198 23.5099 22.1956 23.4272C21.9671 23.2637 21.7077 23.2546 21.4826 23.2913C21.2861 23.3233 21.0892 23.3952 20.9318 23.4527C20.9112 23.4603 20.8913 23.4675 20.8721 23.4744L20.872 23.4743L20.8643 23.4774C20.7121 23.5393 20.5457 23.5793 20.403 23.5735C20.2663 23.568 20.1698 23.5228 20.107 23.4308C20.0873 23.4004 20.0737 23.3557 20.069 23.2829C20.0654 23.2263 20.0675 23.1704 20.07 23.1034C20.071 23.0774 20.072 23.0497 20.0728 23.0196C20.0776 22.835 20.0754 22.5439 19.8133 22.36L18.7027 15.8311ZM18.7027 15.8311C18.7017 15.8285 18.7007 15.826 18.6998 15.8234L18.5039 15.8975L18.7049 15.8386C18.7041 15.8361 18.7034 15.8336 18.7027 15.8311ZM18.3198 21.5305C18.4339 21.2453 18.5494 20.957 18.2877 20.7366L18.4999 22.4258C18.3223 22.3615 18.2079 22.2168 18.1972 22.0236C18.1836 21.8705 18.2514 21.701 18.3198 21.5305ZM17.7005 20.3275C17.6983 20.3247 17.6961 20.322 17.694 20.3193C17.6921 20.3176 17.6902 20.3158 17.6885 20.314L17.5381 20.4596L17.7005 20.3275ZM23.1739 15.4409L23.1739 15.441L23.1763 15.4367C23.3026 15.2067 23.3149 14.9515 23.1545 14.7656C23.0036 14.5905 22.7581 14.5477 22.5244 14.5966C22.2855 14.6403 22.0035 14.7835 21.7993 14.9809C21.5961 15.1772 21.4224 15.4793 21.5446 15.8199L21.5517 15.8397L21.5626 15.8577C21.6898 16.0679 21.9021 16.1275 22.0841 16.1244C22.2615 16.1215 22.4386 16.0615 22.5698 15.9975L22.5699 15.9976L22.5762 15.9943C22.8066 15.872 23.0283 15.6919 23.1739 15.4409ZM25.3143 19.3162L25.3143 19.3161L25.3079 19.3162C25.0217 19.3202 24.7287 19.4314 24.4979 19.6082C24.2671 19.785 24.0799 20.0423 24.0385 20.3516L24.0381 20.3515L24.0372 20.3649C24.026 20.5268 24.0703 20.6698 24.1666 20.7798C24.2592 20.8854 24.3834 20.942 24.5018 20.9693C24.731 21.022 25.0003 20.9796 25.1906 20.881C25.4583 20.7546 25.7085 20.5575 25.8533 20.2744C25.9649 20.0674 25.9771 19.8327 25.8754 19.6394C25.7712 19.4409 25.5648 19.3202 25.3143 19.3162ZM30.5453 10.8916L30.5457 10.8909C30.6176 10.76 30.6458 10.6023 30.6052 10.4536C30.5626 10.2977 30.4481 10.1692 30.2743 10.1109L30.2743 10.1108L30.2681 10.109C30.0183 10.0337 29.757 10.0776 29.5354 10.1742C29.314 10.2707 29.1131 10.4278 28.9751 10.6103C28.825 10.8016 28.7568 11.0449 28.8527 11.259C28.9537 11.4845 29.1925 11.584 29.4582 11.5682L29.4582 11.5682L29.4632 11.5678C29.8844 11.5327 30.327 11.2854 30.5453 10.8916ZM32.0505 15.1584L32.0504 15.1583L32.0478 15.1643C31.9754 15.3252 31.954 15.486 31.9981 15.6339C32.0426 15.7828 32.1447 15.8894 32.2626 15.9567C32.4872 16.0849 32.7929 16.0886 33.042 15.9942C33.3645 15.8882 33.7025 15.669 33.8595 15.3178C33.9724 15.0872 33.9516 14.8473 33.8079 14.6689C33.6706 14.4984 33.4474 14.4165 33.2149 14.4274C32.7446 14.4405 32.2631 14.7222 32.0505 15.1584ZM26.0788 11.5144L26.0712 11.5108L26.0634 11.5077C25.899 11.4439 25.7117 11.4555 25.5455 11.4978C25.3754 11.5411 25.2036 11.6224 25.0558 11.7273C24.9092 11.8314 24.7744 11.9672 24.6927 12.1268C24.6088 12.2904 24.5783 12.4868 24.6626 12.6836L24.6739 12.7099L24.6917 12.7322C24.8614 12.9438 25.104 12.9784 25.306 12.9509C25.5027 12.9242 25.693 12.8369 25.831 12.754C26.0077 12.6566 26.2097 12.4611 26.3124 12.2476C26.3649 12.1384 26.4028 12.0006 26.3709 11.8582C26.3366 11.7051 26.2311 11.588 26.0788 11.5144ZM27.8203 15.8873L27.8204 15.8875L27.8286 15.8822C28.0719 15.7225 28.2383 15.5376 28.3215 15.345C28.4054 15.1507 28.4051 14.9414 28.2965 14.7717C28.1883 14.6028 27.9989 14.514 27.7887 14.5053C27.5796 14.4966 27.3421 14.5645 27.096 14.7116L27.096 14.7116L27.0913 14.7146C26.8443 14.8713 26.6746 15.0547 26.5892 15.2472C26.5029 15.4417 26.5021 15.6519 26.6108 15.8228C26.7189 15.9926 26.9091 16.0825 27.1206 16.0923C27.3312 16.102 27.5711 16.0347 27.8203 15.8873ZM22.9188 18.1385L22.9102 18.1191L21.4273 18.6308L21.2409 18.5349C21.2408 18.535 21.2408 18.5352 21.2407 18.5353C21.1456 18.7204 21.1083 18.9063 21.1645 19.0738C21.2228 19.2471 21.3627 19.3475 21.5063 19.3948C21.7788 19.4846 22.1399 19.4159 22.3975 19.2398C22.546 19.1421 22.7191 18.9971 22.8364 18.8191C22.9557 18.6379 23.0327 18.3946 22.9188 18.1385ZM33.7005 11.4354L33.6884 11.4169L33.6726 11.4013C33.4332 11.1648 33.1134 11.159 32.8516 11.2305C32.5895 11.3022 32.3401 11.4606 32.1753 11.6292L32.1702 11.6345L32.1655 11.64C31.9992 11.8357 31.9013 12.035 31.9103 12.2282C31.9201 12.4395 32.0531 12.5832 32.2121 12.6579C32.3644 12.7295 32.5496 12.7455 32.727 12.7225C32.9063 12.6993 33.0946 12.6342 33.2605 12.5239C33.4082 12.4303 33.5773 12.2835 33.6847 12.1066C33.7946 11.9256 33.8579 11.6751 33.7005 11.4354ZM30.0455 19.3955L30.0456 19.3957L30.0533 19.3907C30.5568 19.0637 30.7718 18.5772 30.5329 18.2052C30.2973 17.8382 29.7647 17.8151 29.2502 18.1179L29.2501 18.1178L29.2424 18.1228C28.7389 18.4497 28.5239 18.9362 28.7628 19.3082C28.9984 19.6752 29.531 19.6983 30.0455 19.3955Z" stroke="url(#paint3_linear_1085_4945)" stroke-width="0.418983"/>
</g>
<g filter="url(#filter2_d_1085_4945)">
<ellipse rx="11.6509" ry="8.41513" transform="matrix(0.846324 -0.532669 0.534682 0.845054 27.4009 15.1161)" fill="url(#paint4_radial_1085_4945)"/>
</g>
<g filter="url(#filter3_d_1085_4945)">
<g filter="url(#filter4_i_1085_4945)">
<path d="M23.86 22.3709C23.86 22.3709 24.4716 22.919 25.2145 22.832C25.9575 22.7449 26.3597 22.3453 26.3597 22.3453C26.3597 22.3453 27.0627 21.5094 27.5005 21.6161C27.9383 21.7228 28.5271 21.8725 29.1895 21.5154C29.8624 21.1448 30.1088 20.5569 30.1088 20.5569C30.1088 20.5569 30.4453 19.9099 31.0064 19.9291C31.5676 19.9484 32.247 19.7351 32.5619 19.4187C32.8768 19.1023 33.1135 18.8436 33.1956 18.4087C33.2778 17.9737 33.4778 17.61 34.1163 17.4622C34.7549 17.3145 35.3538 16.8311 35.5296 16.2636C35.7055 15.6961 35.5775 15.1278 35.5775 15.1278C35.5775 15.1278 35.7437 14.8896 35.9178 14.8206C36.1038 14.7501 37.0677 14.066 37.1244 13.4153C37.181 12.7645 36.9028 12.0558 36.9028 12.0558C36.9028 12.0558 38.4537 11.0963 37.077 9.00942C37.077 9.00942 37.5339 7.12082 35.6328 6.24992C35.6328 6.24992 35.1288 4.35242 33.3118 4.80845C33.3118 4.80845 32.5742 3.40014 31.0668 4.11153C30.78 4.25453 30.5509 4.26923 30.5509 4.26923C30.5509 4.26923 30.2017 3.88482 29.8026 3.79791C29.4036 3.71101 29.1682 3.77506 28.8292 3.88771C28.4902 4.00036 27.909 4.53028 27.5593 4.44975C27.3259 4.42849 27.3589 4.19372 26.4707 4.28567C26.2938 4.33071 25.7342 4.52998 25.3242 4.96692C24.9143 5.40386 24.6259 5.32829 24.6259 5.32829C24.6259 5.32829 23.9766 5.28286 23.7412 5.34691C23.5058 5.41096 22.9328 5.59965 22.437 6.33831C22.1772 6.70904 21.762 6.79416 21.762 6.79416C21.762 6.79416 20.675 6.84865 20.1222 7.6183C19.6439 8.19692 20.1366 8.15132 19.2904 8.70016C18.7421 8.99532 18.4812 8.84361 17.8438 9.72039C17.5622 10.2152 17.9253 10.3063 17.5604 10.7137C17.1955 11.121 16.9368 11.0906 16.6219 11.407C16.307 11.7234 15.6668 11.446 16.172 13.149C16.172 13.149 15.9663 13.4647 15.5527 13.7684C15.1391 14.0721 15.0593 14.8349 15.1328 15.045C15.1942 15.2566 15.1605 15.3821 15.4569 15.8334C15.4569 15.8334 14.2205 16.987 15.7682 18.5677C15.7682 18.5677 15.6405 20.4663 17.6514 21.0327C17.6514 21.0327 18.6792 23.1483 20.4592 22.1741C20.4592 22.1741 21.1157 23.4096 22.5943 22.9689C23.4168 22.6295 23.4286 22.4215 23.86 22.3709Z" fill="url(#paint5_radial_1085_4945)"/>
<path d="M23.86 22.3709C23.86 22.3709 24.4716 22.919 25.2145 22.832C25.9575 22.7449 26.3597 22.3453 26.3597 22.3453C26.3597 22.3453 27.0627 21.5094 27.5005 21.6161C27.9383 21.7228 28.5271 21.8725 29.1895 21.5154C29.8624 21.1448 30.1088 20.5569 30.1088 20.5569C30.1088 20.5569 30.4453 19.9099 31.0064 19.9291C31.5676 19.9484 32.247 19.7351 32.5619 19.4187C32.8768 19.1023 33.1135 18.8436 33.1956 18.4087C33.2778 17.9737 33.4778 17.61 34.1163 17.4622C34.7549 17.3145 35.3538 16.8311 35.5296 16.2636C35.7055 15.6961 35.5775 15.1278 35.5775 15.1278C35.5775 15.1278 35.7437 14.8896 35.9178 14.8206C36.1038 14.7501 37.0677 14.066 37.1244 13.4153C37.181 12.7645 36.9028 12.0558 36.9028 12.0558C36.9028 12.0558 38.4537 11.0963 37.077 9.00942C37.077 9.00942 37.5339 7.12082 35.6328 6.24992C35.6328 6.24992 35.1288 4.35242 33.3118 4.80845C33.3118 4.80845 32.5742 3.40014 31.0668 4.11153C30.78 4.25453 30.5509 4.26923 30.5509 4.26923C30.5509 4.26923 30.2017 3.88482 29.8026 3.79791C29.4036 3.71101 29.1682 3.77506 28.8292 3.88771C28.4902 4.00036 27.909 4.53028 27.5593 4.44975C27.3259 4.42849 27.3589 4.19372 26.4707 4.28567C26.2938 4.33071 25.7342 4.52998 25.3242 4.96692C24.9143 5.40386 24.6259 5.32829 24.6259 5.32829C24.6259 5.32829 23.9766 5.28286 23.7412 5.34691C23.5058 5.41096 22.9328 5.59965 22.437 6.33831C22.1772 6.70904 21.762 6.79416 21.762 6.79416C21.762 6.79416 20.675 6.84865 20.1222 7.6183C19.6439 8.19692 20.1366 8.15132 19.2904 8.70016C18.7421 8.99532 18.4812 8.84361 17.8438 9.72039C17.5622 10.2152 17.9253 10.3063 17.5604 10.7137C17.1955 11.121 16.9368 11.0906 16.6219 11.407C16.307 11.7234 15.6668 11.446 16.172 13.149C16.172 13.149 15.9663 13.4647 15.5527 13.7684C15.1391 14.0721 15.0593 14.8349 15.1328 15.045C15.1942 15.2566 15.1605 15.3821 15.4569 15.8334C15.4569 15.8334 14.2205 16.987 15.7682 18.5677C15.7682 18.5677 15.6405 20.4663 17.6514 21.0327C17.6514 21.0327 18.6792 23.1483 20.4592 22.1741C20.4592 22.1741 21.1157 23.4096 22.5943 22.9689C23.4168 22.6295 23.4286 22.4215 23.86 22.3709Z" fill="url(#paint6_linear_1085_4945)" fill-opacity="0.5"/>
</g>
<g filter="url(#filter5_d_1085_4945)">
<path d="M34.7709 6.27571C35.1628 6.30278 35.7479 6.3194 35.6997 6.83559C35.6522 7.25447 35.0104 7.6821 35.3668 8.12664C35.6166 8.38916 36.1988 8.3818 36.1703 8.85922C36.1702 9.57644 34.806 9.95492 35.3128 10.7465C35.4405 10.9018 35.6162 11.0514 35.6298 11.2686C35.6411 11.3645 35.618 11.4767 35.5694 11.5796C35.279 12.3065 34.183 12.3861 33.9983 13.1857C33.9246 13.4861 34.1145 13.7556 34.0407 14.056C33.9396 14.4325 33.6099 14.7264 33.2661 14.9003C32.978 15.0313 32.6587 15.1051 32.3734 15.2601C32.0536 15.4313 31.7719 15.7195 31.6679 16.072C31.6067 16.2737 31.583 16.4831 31.4845 16.677C31.2755 17.0661 30.8711 17.3444 30.4335 17.4443C29.9331 17.5271 29.384 17.5063 28.9762 17.8579C28.6515 18.0905 28.5024 18.4726 28.2715 18.7792C27.8688 19.2761 27.1909 19.5013 26.5831 19.2929C26.1932 19.1805 25.7719 19.3149 25.4337 19.5368C25.1421 19.7411 24.9337 20.0329 24.6527 20.2238C24.1927 20.5451 23.5965 20.6392 23.1591 20.2285C22.903 20.0153 22.5393 20.0214 22.2363 20.1298C21.7248 20.3234 21.2741 20.8259 20.6968 20.7719C20.4768 20.7612 20.2829 20.6623 20.1869 20.4669C20.0951 20.3075 20.059 20.105 19.901 20.002C19.5688 19.7612 19.1171 19.9478 18.7676 20.0738C18.4315 20.2104 17.9777 20.2757 17.7568 19.949C17.5641 19.6555 17.8456 19.1606 17.5148 18.9319C17.1811 18.6792 16.6795 18.9567 16.3242 18.8281C16.1465 18.7638 16.0322 18.6192 16.0214 18.4259C15.9851 18.0169 16.5302 17.4911 16.1119 17.1389C15.9108 16.9801 15.5423 17.0476 15.3623 16.862C14.9644 16.3737 15.6364 15.8939 15.8157 15.4596C16.1047 14.7207 15.2161 14.9098 15.3713 14.2717C15.5145 13.635 16.4094 13.3965 16.4631 12.7216C16.4686 12.563 16.3811 12.4395 16.3281 12.2998C16.1655 11.7475 16.7847 11.3347 17.2052 11.0909C17.5448 10.881 17.9315 10.5562 17.9177 10.1323C17.8771 9.68729 18.1742 9.3243 18.5377 9.11157C18.7751 8.96222 19.0584 8.8926 19.3106 8.76583C19.6545 8.59188 19.9481 8.30223 20.0627 7.93629C20.1772 7.57036 20.4709 7.28071 20.8042 7.12014C21.0099 7.01098 21.2481 6.97094 21.4743 6.93231C21.9162 6.86844 22.3354 6.61273 22.5831 6.24336C22.8492 5.82322 23.2704 5.48218 23.7736 5.42329C24.0132 5.39524 24.2283 5.46732 24.4679 5.43928C25.0444 5.38396 25.4112 4.89126 25.8606 4.58338C26.1551 4.40304 26.5525 4.27144 26.8825 4.39085C27.8099 4.93875 28.3686 3.91302 29.2236 3.84943C29.9573 3.78788 29.6894 4.49997 30.5449 4.33906C30.9959 4.24981 31.4651 3.90316 31.9402 4.01773C32.1151 4.05805 32.2597 4.15053 32.293 4.32898C32.3305 4.5434 32.3484 4.79659 32.5888 4.87785C32.9858 5.0502 33.4754 4.77409 33.8836 4.83572C34.4173 4.9313 34.3717 5.26484 34.2403 5.69353C34.1589 6.03128 34.4537 6.26421 34.7709 6.27571ZM20.8168 11.738C21.0167 11.3742 20.7683 11.1237 20.3892 11.2046C19.9967 11.2748 19.4028 11.6968 19.5661 12.1518C19.7171 12.4016 20.0723 12.3235 20.302 12.2116C20.5077 12.1024 20.6958 11.9467 20.8168 11.738ZM23.492 16.5791C23.6615 16.2675 23.5005 15.9338 23.1354 15.928C22.6625 15.9347 22.1348 16.3003 22.0704 16.782C22.0391 17.2354 22.6242 17.252 22.9215 17.0957C23.1632 16.9823 23.3738 16.8118 23.492 16.5791ZM28.1862 7.19221C28.2862 7.01033 28.2472 6.78393 28.0321 6.71185C27.6542 6.59804 27.1963 6.83398 26.9654 7.1406C26.7225 7.44862 26.8475 7.78651 27.2697 7.76141C27.6306 7.73133 28.0061 7.5172 28.1862 7.19221ZM31.494 11.6311C31.6607 11.2955 31.4095 11.021 31.0472 11.0391C30.6476 11.0494 30.239 11.2917 30.0631 11.6527C29.8324 12.1659 30.3894 12.356 30.796 12.199C31.0884 12.104 31.3695 11.9131 31.494 11.6311ZM23.5506 8.97467C23.8359 8.81972 24.2372 8.31082 23.812 8.1053C23.3791 7.93716 22.4611 8.49437 22.6794 9.00369C22.8932 9.27042 23.3012 9.12542 23.5506 8.97467ZM25.5376 12.1094C26.4168 11.5324 25.9128 10.7648 25.028 11.2938C24.1354 11.8602 24.6408 12.6398 25.5376 12.1094ZM20.1048 15.4682C20.3753 15.2906 20.7006 14.9608 20.5516 14.6257C20.2312 14.177 19.4485 14.6454 19.2515 15.0332C18.9257 15.6669 19.6779 15.7613 20.1048 15.4682ZM30.9704 8.75057C31.2304 8.58643 31.5423 8.24602 31.3496 7.95251C31.0195 7.62647 30.4311 7.88982 30.1495 8.17806C29.5418 8.89346 30.4189 9.11903 30.9704 8.75057ZM27.7632 15.6173C28.6994 15.0093 28.1348 14.1394 27.1809 14.7008C26.2447 15.3088 26.8094 16.1787 27.7632 15.6173Z" fill="#F9FAFC"/>
<path d="M16.5269 12.2334C16.479 12.06 16.5423 11.895 16.7021 11.7218C16.8661 11.544 17.1019 11.3931 17.3105 11.2722L17.3105 11.2723L17.3156 11.2691C17.4939 11.1589 17.6959 11.0119 17.8532 10.8282C18.0112 10.6437 18.1363 10.4074 18.1271 10.1258L18.1275 10.1258L18.1263 10.1136C18.0961 9.78245 18.3162 9.48408 18.6438 9.29237L18.6438 9.29246L18.6495 9.28889C18.7504 9.22544 18.8647 9.17662 18.9956 9.12516C19.0163 9.117 19.0377 9.10871 19.0595 9.10024C19.1694 9.05755 19.2905 9.01052 19.405 8.95299L19.4055 8.95274C19.7858 8.76031 20.1271 8.43211 20.2627 7.9991C20.3565 7.69938 20.6028 7.44979 20.8953 7.30885L20.8954 7.309L20.9026 7.30518C21.0727 7.21491 21.2752 7.17886 21.5073 7.13921C22.0044 7.06656 22.4757 6.77989 22.7572 6.36018L22.7573 6.36022L22.7602 6.35557C23.0036 5.97118 23.3758 5.68076 23.7982 5.63132C23.8924 5.6203 23.9843 5.62847 24.1008 5.63976L24.1083 5.64048C24.2171 5.65104 24.349 5.66383 24.4904 5.64757C24.835 5.61393 25.1079 5.44992 25.3396 5.27233C25.4353 5.19893 25.5286 5.11952 25.6169 5.04435C25.6348 5.02905 25.6526 5.01392 25.6701 4.99906C25.7747 4.9104 25.8736 4.82901 25.9748 4.75925C26.2445 4.59524 26.5593 4.50599 26.7951 4.5822C27.056 4.73176 27.3032 4.77908 27.541 4.7547C27.7781 4.73039 27.9906 4.63614 28.18 4.53373C28.2648 4.48794 28.3489 4.43823 28.4294 4.39064C28.4391 4.38491 28.4488 4.37922 28.4584 4.37356C28.5491 4.31998 28.6361 4.26932 28.7238 4.22405C28.8993 4.13352 29.0656 4.07123 29.2394 4.05832L29.2414 4.05815C29.3893 4.04574 29.464 4.0732 29.5105 4.10151C29.5616 4.13258 29.5973 4.17345 29.6582 4.24334C29.6655 4.25161 29.673 4.2603 29.681 4.26943C29.7504 4.34854 29.8472 4.45317 30.0023 4.51592C30.158 4.57892 30.3453 4.58979 30.5839 4.54492L30.5859 4.54454C30.7158 4.51882 30.8425 4.47555 30.9605 4.4311C31.0131 4.4113 31.0612 4.3924 31.1078 4.37406C31.1733 4.34831 31.2361 4.32365 31.3045 4.29915C31.5297 4.21846 31.7164 4.17914 31.8914 4.22136L31.8934 4.22183C31.9609 4.2374 32.0081 4.25998 32.0377 4.28408C32.0635 4.30502 32.0798 4.32947 32.0868 4.36616C32.0894 4.38099 32.092 4.39744 32.0949 4.41514C32.1093 4.50423 32.1288 4.6249 32.1697 4.72938C32.2239 4.86815 32.3245 5.00642 32.5134 5.07331C32.7736 5.18313 33.0501 5.14357 33.2691 5.10451C33.3051 5.09809 33.3396 5.0917 33.3729 5.08556C33.565 5.05005 33.7138 5.02254 33.8498 5.04242C33.9622 5.06285 34.0241 5.0924 34.0576 5.11743C34.0868 5.13932 34.1007 5.16216 34.1086 5.19237C34.118 5.22824 34.1202 5.28134 34.108 5.35976C34.096 5.43753 34.0721 5.52716 34.04 5.6319L34.0396 5.63179L34.0366 5.64417C33.9774 5.88978 34.0575 6.10632 34.209 6.25587C34.3535 6.39858 34.5572 6.4767 34.76 6.48489C34.7731 6.48579 34.7862 6.48668 34.7993 6.48757C34.9946 6.50083 35.1834 6.51364 35.326 6.56795C35.3978 6.59527 35.4384 6.62659 35.4606 6.65711C35.4797 6.68346 35.4989 6.72781 35.4913 6.81365C35.484 6.87343 35.4535 6.94724 35.3961 7.04648C35.3691 7.09311 35.3393 7.14034 35.3067 7.19194L35.3023 7.199C35.2689 7.25194 35.2327 7.3094 35.1995 7.368C35.1344 7.48272 35.0685 7.62186 35.0533 7.77539C35.037 7.93957 35.0803 8.10401 35.2034 8.25749L35.2089 8.26443L35.2151 8.27088C35.304 8.36433 35.4148 8.4263 35.5098 8.47281C35.5507 8.49282 35.5929 8.51191 35.6316 8.52942C35.6385 8.53254 35.6453 8.53561 35.6519 8.53863C35.6975 8.55932 35.7383 8.5782 35.7759 8.59788C35.853 8.63824 35.8992 8.67327 35.9261 8.70811C35.9478 8.7362 35.9654 8.77462 35.9611 8.84647L35.9608 8.84645L35.9608 8.85892C35.9608 8.96849 35.9093 9.08053 35.8019 9.21373C35.7247 9.30933 35.6358 9.39663 35.5381 9.49259C35.4943 9.53556 35.4488 9.58028 35.4017 9.62825C35.2619 9.77086 35.1091 9.9429 35.0357 10.1476C34.9557 10.3709 34.9771 10.6105 35.1364 10.8593L35.1431 10.8698L35.151 10.8795C35.1784 10.9127 35.2084 10.9465 35.2354 10.9769C35.243 10.9854 35.2503 10.9936 35.2573 11.0015C35.2911 11.0399 35.3203 11.0741 35.3451 11.108C35.3946 11.1755 35.4173 11.2288 35.4206 11.2814L35.4203 11.2814L35.4217 11.293C35.4273 11.3408 35.4161 11.4133 35.3799 11.4901L35.3795 11.4899L35.3748 11.5017C35.2638 11.7794 35.0034 11.9438 34.6665 12.1565C34.6551 12.1637 34.6436 12.171 34.6321 12.1783C34.3066 12.384 33.909 12.644 33.7945 13.1369C33.7468 13.3328 33.7841 13.5149 33.8115 13.6493L33.8142 13.6624C33.8444 13.8104 33.8609 13.9068 33.8377 14.0037C33.7578 14.2974 33.4897 14.5514 33.1752 14.7115C33.0635 14.7619 32.9472 14.8032 32.8207 14.8481C32.7968 14.8566 32.7725 14.8652 32.7479 14.874C32.5956 14.9285 32.4315 14.9901 32.2738 15.0757C31.9185 15.266 31.5909 15.593 31.4671 16.0118M16.5269 12.2334L17.6376 18.7623C17.8996 18.9462 17.9018 19.2373 17.897 19.4219C17.8962 19.452 17.8952 19.4797 17.8942 19.5058C17.8917 19.5727 17.8896 19.6286 17.8933 19.6853C17.898 19.7581 17.9115 19.8027 17.9312 19.8332C17.994 19.9251 18.0905 19.9703 18.2272 19.9759C18.3699 19.9816 18.5363 19.9416 18.6885 19.8798L18.6963 19.8766L18.6963 19.8768C18.7155 19.8699 18.7354 19.8626 18.756 19.8551C18.9134 19.7976 19.1104 19.7257 19.3068 19.6936C19.5319 19.6569 19.7913 19.6661 20.0198 19.8296C20.144 19.9123 20.2121 20.0285 20.2575 20.1225C20.2749 20.1586 20.2914 20.1971 20.3058 20.2304C20.31 20.2401 20.314 20.2494 20.3177 20.258C20.3359 20.2997 20.3516 20.3334 20.3685 20.3626L20.3753 20.3746L20.3749 20.3748C20.4291 20.4849 20.5424 20.5547 20.7067 20.5627L20.716 20.5632L20.716 20.5634C20.9372 20.5841 21.1463 20.5003 21.3865 20.3621C21.4588 20.3205 21.5245 20.2799 21.5931 20.2375C21.6437 20.2062 21.696 20.1738 21.7536 20.1395C21.8802 20.064 22.0167 19.9888 22.1619 19.9339L22.1655 19.9325L22.1655 19.9326C22.504 19.8115 22.9566 19.7875 23.293 20.0676L23.3027 20.0756L23.3024 20.0759C23.6384 20.3914 24.1159 20.3431 24.5325 20.0521L24.5347 20.0505L24.5347 20.0506C24.6567 19.9677 24.7658 19.861 24.8917 19.7364L24.8997 19.7285C25.0192 19.6102 25.1541 19.4767 25.3133 19.3652L25.3185 19.3616L25.3186 19.3616C25.6835 19.1222 26.1692 18.9556 26.6409 19.0916L26.651 19.0945L26.6509 19.0947C27.1669 19.2717 27.7535 19.083 28.1063 18.6501C28.1751 18.5584 28.2314 18.467 28.293 18.367C28.3299 18.307 28.3688 18.2439 28.4134 18.1759C28.5234 18.0079 28.6567 17.8311 28.8464 17.6931C29.0871 17.4884 29.3634 17.3969 29.6296 17.3448C29.7635 17.3186 29.8988 17.3016 30.0271 17.2864C30.043 17.2845 30.0587 17.2827 30.0743 17.2809C30.1851 17.2678 30.29 17.2555 30.3927 17.2387C30.7767 17.1493 31.1228 16.9057 31.2987 16.5799C31.3369 16.504 31.3628 16.4213 31.3871 16.3255C31.3941 16.298 31.4014 16.2674 31.4091 16.2352C31.4261 16.164 31.445 16.0847 31.4671 16.0118M16.5269 12.2334C16.5259 12.2309 16.5249 12.2283 16.524 12.2258L16.3281 12.2998L16.5291 12.2409C16.5283 12.2384 16.5276 12.2359 16.5269 12.2334ZM31.4671 16.0118C31.4672 16.0116 31.4673 16.0113 31.4674 16.011L31.6679 16.072L31.4669 16.0125C31.467 16.0123 31.467 16.0121 31.4671 16.0118ZM16.144 17.9328C16.2582 17.6476 16.3736 17.3593 16.1119 17.1389L16.3242 18.8281C16.1465 18.7638 16.0322 18.6192 16.0214 18.4259C16.0078 18.2728 16.0757 18.1034 16.144 17.9328ZM15.5247 16.7298C15.5225 16.7271 15.5203 16.7243 15.5182 16.7216C15.5163 16.7199 15.5145 16.7181 15.5127 16.7163L15.3623 16.862L15.5247 16.7298ZM20.9981 11.8433L20.9982 11.8433L21.0005 11.839C21.1269 11.609 21.1391 11.3539 20.9788 11.1679C20.8278 10.9929 20.5824 10.9501 20.3486 10.999C20.1097 11.0426 19.8277 11.1859 19.6235 11.3832C19.4204 11.5795 19.2467 11.8817 19.3689 12.2223L19.376 12.242L19.3868 12.26C19.514 12.4702 19.7263 12.5298 19.9084 12.5268C20.0857 12.5238 20.2628 12.4638 20.3941 12.3998L20.3941 12.4L20.4004 12.3966C20.6308 12.2743 20.8525 12.0943 20.9981 11.8433ZM23.1385 15.7185L23.1385 15.7184L23.1321 15.7185C22.8459 15.7226 22.553 15.8338 22.3221 16.0105C22.0913 16.1873 21.9041 16.4447 21.8628 16.7539L21.8623 16.7539L21.8614 16.7672C21.8502 16.9291 21.8945 17.0721 21.9909 17.1821C22.0834 17.2877 22.2076 17.3444 22.326 17.3716C22.5552 17.4243 22.8245 17.382 23.0148 17.2834C23.2826 17.157 23.5327 16.9598 23.6775 16.6768C23.7891 16.4698 23.8013 16.2351 23.6997 16.0417C23.5954 15.8433 23.389 15.7226 23.1385 15.7185ZM28.3695 7.29393L28.3699 7.29324C28.4418 7.16238 28.47 7.0046 28.4294 6.85594C28.3868 6.70002 28.2723 6.57154 28.0985 6.51327L28.0985 6.51317L28.0923 6.5113C27.8425 6.43609 27.5812 6.47996 27.3596 6.57655C27.1382 6.67309 26.9373 6.83009 26.7993 7.01265C26.6493 7.20392 26.581 7.4472 26.6769 7.6613C26.7779 7.8868 27.0168 7.98629 27.2825 7.9705L27.2825 7.97056L27.2874 7.97014C27.7086 7.93503 28.1513 7.68771 28.3695 7.29393ZM29.8747 11.5607L29.8746 11.5607L29.872 11.5666C29.7996 11.7276 29.7782 11.8883 29.8223 12.0363C29.8668 12.1852 29.9689 12.2917 30.0868 12.359C30.3114 12.4873 30.6171 12.4909 30.8662 12.3965C31.1887 12.2906 31.5268 12.0714 31.6838 11.7201C31.7966 11.4895 31.7758 11.2497 31.6321 11.0712C31.4948 10.9007 31.2717 10.8188 31.0391 10.8298C30.5689 10.8428 30.0873 11.1245 29.8747 11.5607ZM23.903 7.91675L23.8954 7.91311L23.8876 7.91008C23.7232 7.84621 23.5359 7.8578 23.3697 7.90014C23.1996 7.94344 23.0278 8.02472 22.88 8.12961C22.7334 8.2337 22.5987 8.36954 22.5169 8.5291C22.433 8.69278 22.4025 8.88912 22.4868 9.08595L22.4981 9.11222L22.516 9.13454C22.6856 9.34616 22.9282 9.38076 23.1302 9.35328C23.3269 9.32652 23.5172 9.23922 23.6552 9.15634C23.8319 9.05897 24.0339 8.86346 24.1366 8.6499C24.1891 8.54078 24.227 8.40291 24.1951 8.26052C24.1608 8.10741 24.0553 7.99037 23.903 7.91675ZM25.6445 12.2897L25.6446 12.2899L25.6528 12.2845C25.8961 12.1248 26.0625 11.9399 26.1457 11.7474C26.2296 11.553 26.2293 11.3438 26.1207 11.1741C26.0125 11.0051 25.8231 10.9164 25.613 10.9076C25.4038 10.8989 25.1663 10.9669 24.9202 11.114L24.9202 11.1139L24.9155 11.1169C24.6685 11.2736 24.4988 11.4571 24.4134 11.6496C24.3271 11.844 24.3263 12.0542 24.435 12.2251C24.5431 12.395 24.7333 12.4848 24.9448 12.4946C25.1554 12.5043 25.3953 12.4371 25.6445 12.2897ZM20.743 14.5409L20.7344 14.5215L19.2515 15.0332L19.0651 14.9372C19.065 14.9374 19.065 14.9375 19.0649 14.9377C18.9699 15.1228 18.9325 15.3086 18.9888 15.4762C19.047 15.6494 19.1869 15.7498 19.3305 15.7972C19.603 15.887 19.9641 15.8182 20.2217 15.6421C20.3702 15.5444 20.5433 15.3994 20.6606 15.2214C20.7799 15.0402 20.8569 14.7969 20.743 14.5409ZM31.0848 8.92627C31.2325 8.83262 31.4015 8.68588 31.5089 8.5089C31.6188 8.32792 31.6821 8.07744 31.5248 7.83775L31.5126 7.8192L31.4968 7.8036C31.2574 7.56719 30.9376 7.56133 30.6758 7.63288C30.4137 7.70454 30.1643 7.86296 29.9995 8.03159L29.9944 8.03681L29.9897 8.04236C29.8234 8.23806 29.7255 8.4373 29.7345 8.63057C29.7443 8.84188 29.8774 8.98558 30.0363 9.06029C30.1886 9.13186 30.3738 9.14789 30.5513 9.12488C30.7305 9.10163 30.9188 9.03657 31.0848 8.92627ZM27.8697 15.7978L27.8698 15.798L27.8776 15.793C28.381 15.4661 28.596 14.9796 28.3571 14.6076C28.1215 14.2406 27.5889 14.2174 27.0744 14.5203L27.0743 14.5201L27.0666 14.5251C26.5631 14.852 26.3481 15.3385 26.587 15.7105C26.8227 16.0776 27.3552 16.1007 27.8697 15.7978Z" stroke="url(#paint7_linear_1085_4945)" stroke-width="0.418983"/>
</g>
</g>
<g filter="url(#filter6_i_1085_4945)">
<path d="M36.3726 44.2027C36.3726 44.2027 37.4063 45.1292 38.6621 44.982C39.9179 44.8348 40.5978 44.1594 40.5978 44.1594C40.5978 44.1594 41.786 42.7466 42.526 42.9269C43.2661 43.1072 44.2612 43.3603 45.3808 42.7566C46.5183 42.1303 46.9347 41.1366 46.9347 41.1366C46.9347 41.1366 47.5035 40.0428 48.452 40.0755C49.4005 40.1081 50.5489 39.7475 51.0811 39.2127C51.6134 38.6778 52.0134 38.2407 52.1523 37.5055C52.2912 36.7702 52.6292 36.1555 53.7086 35.9057C54.7879 35.6559 55.8002 34.8389 56.0974 33.8797C56.3946 32.9205 56.1783 31.9599 56.1783 31.9599C56.1783 31.9599 56.4592 31.5572 56.7535 31.4406C57.068 31.3216 58.6972 30.1652 58.793 29.0652C58.8887 27.9653 58.4184 26.7675 58.4184 26.7675C58.4184 26.7675 61.0399 25.1456 58.7128 21.6182C58.7128 21.6182 59.4851 18.426 56.2717 16.9539C56.2717 16.9539 55.42 13.7466 52.3487 14.5175C52.3487 14.5175 51.1019 12.137 48.554 13.3395C48.0692 13.5812 47.682 13.606 47.682 13.606C47.682 13.606 47.0918 12.9563 46.4172 12.8094C45.7427 12.6625 45.3448 12.7707 44.7718 12.9612C44.1988 13.1516 43.2164 14.0473 42.6253 13.9111C42.2309 13.8752 42.2866 13.4784 40.7854 13.6338C40.4864 13.71 39.5405 14.0468 38.8476 14.7853C38.1546 15.5239 37.6672 15.3961 37.6672 15.3961C37.6672 15.3961 36.5697 15.3193 36.1718 15.4276C35.7739 15.5359 34.8054 15.8548 33.9674 17.1033C33.5282 17.73 32.8265 17.8738 32.8265 17.8738C32.8265 17.8738 30.9892 17.9659 30.0547 19.2669C29.2463 20.2449 30.0791 20.1678 28.6487 21.0955C27.7221 21.5944 27.281 21.338 26.2037 22.8199C25.7277 23.6563 26.3414 23.8103 25.7247 24.4988C25.1079 25.1874 24.6706 25.1359 24.1383 25.6708C23.6061 26.2056 22.5238 25.7367 23.3778 28.6151C23.3778 28.6151 23.0302 29.1488 22.3311 29.6621C21.632 30.1755 21.4971 31.4648 21.6212 31.82C21.7251 32.1776 21.6681 32.3897 22.1691 33.1526C22.1691 33.1526 20.0793 35.1025 22.6953 37.7743C22.6953 37.7743 22.4795 40.9835 25.8784 41.9408C25.8784 41.9408 27.6157 45.5167 30.6244 43.87C30.6244 43.87 31.734 45.9584 34.2333 45.2135C35.6234 44.6397 35.6434 44.2882 36.3726 44.2027Z" fill="url(#paint8_radial_1085_4945)"/>
</g>
<g filter="url(#filter7_d_1085_4945)">
<path d="M54.8135 17.0039C55.4759 17.0496 56.4648 17.0777 56.3834 17.9503C56.303 18.6583 55.2183 19.3811 55.8207 20.1325C56.2428 20.5762 57.2269 20.5638 57.1788 21.3707C57.1787 22.583 54.8727 23.2227 55.7294 24.5608C55.9453 24.8232 56.2422 25.0761 56.2651 25.4433C56.2843 25.6054 56.2452 25.7949 56.1631 25.9689C55.6722 27.1975 53.8197 27.3321 53.5076 28.6837C53.383 29.1914 53.7039 29.647 53.5792 30.1547C53.4083 30.7911 52.8511 31.2878 52.27 31.5818C51.7829 31.8032 51.2433 31.928 50.761 32.1899C50.2204 32.4792 49.7443 32.9664 49.5685 33.5623C49.4652 33.9032 49.425 34.2572 49.2585 34.5849C48.9052 35.2426 48.2218 35.713 47.4821 35.8818C46.6363 36.0218 45.7082 35.9866 45.0189 36.581C44.47 36.974 44.2181 37.6199 43.8277 38.1381C43.147 38.978 42.0012 39.3587 40.9739 39.0064C40.3149 38.8164 39.6027 39.0436 39.0311 39.4186C38.5382 39.764 38.186 40.2573 37.7109 40.58C36.9334 41.123 35.9257 41.282 35.1864 40.5878C34.7536 40.2275 34.1388 40.2378 33.6267 40.421C32.762 40.7482 32.0003 41.5976 31.0244 41.5063C30.6527 41.4882 30.3249 41.3211 30.1626 40.9908C30.0075 40.7213 29.9464 40.3791 29.6794 40.2049C29.1178 39.7981 28.3544 40.1134 27.7637 40.3264C27.1956 40.5572 26.4284 40.6676 26.055 40.1154C25.7293 39.6193 26.2051 38.7828 25.646 38.3962C25.0821 37.9691 24.2342 38.4382 23.6336 38.2208C23.3332 38.1121 23.14 37.8676 23.1218 37.541C23.0604 36.8496 23.9818 35.961 23.2747 35.3657C22.9349 35.0972 22.3119 35.2112 22.0078 34.8975C21.3351 34.0722 22.471 33.2612 22.7741 32.5271C23.2627 31.2782 21.7606 31.5978 22.0229 30.5192C22.265 29.443 23.7777 29.0399 23.8684 27.8992C23.8777 27.631 23.7298 27.4223 23.6402 27.1862C23.3653 26.2527 24.4119 25.5549 25.1228 25.1429C25.6967 24.7881 26.3503 24.239 26.327 23.5226C26.2584 22.7704 26.7606 22.1568 27.3751 21.7973C27.7764 21.5448 28.2552 21.4271 28.6815 21.2129C29.2627 20.9188 29.759 20.4293 29.9527 19.8107C30.1463 19.1922 30.6427 18.7026 31.2059 18.4312C31.5537 18.2467 31.9563 18.179 32.3387 18.1137C33.0856 18.0058 33.7941 17.5735 34.2129 16.9492C34.6626 16.2391 35.3745 15.6626 36.2251 15.5631C36.6301 15.5157 36.9936 15.6375 37.3986 15.5901C38.3731 15.4966 38.9931 14.6638 39.7527 14.1434C40.2505 13.8386 40.9222 13.6161 41.48 13.818C43.0475 14.7441 43.9919 13.0103 45.437 12.9028C46.6771 12.7988 46.2243 14.0024 47.6704 13.7304C48.4328 13.5796 49.2257 12.9937 50.0289 13.1873C50.3244 13.2555 50.5688 13.4118 50.6251 13.7134C50.6885 14.0758 50.7187 14.5038 51.1251 14.6411C51.7961 14.9325 52.6237 14.4658 53.3136 14.5699C54.2157 14.7315 54.1388 15.2953 53.9166 16.0199C53.7789 16.5907 54.2773 16.9845 54.8135 17.0039ZM31.2274 26.2366C31.5652 25.6218 31.1454 25.1983 30.5045 25.335C29.841 25.4537 28.8373 26.167 29.1133 26.9361C29.3686 27.3582 29.9689 27.2263 30.3572 27.0371C30.7049 26.8525 31.0228 26.5893 31.2274 26.2366ZM35.749 34.4194C36.0357 33.8927 35.7635 33.3287 35.1464 33.3188C34.347 33.3301 33.4552 33.9482 33.3463 34.7623C33.2934 35.5287 34.2823 35.5568 34.7848 35.2925C35.1933 35.1009 35.5492 34.8126 35.749 34.4194ZM43.6836 18.553C43.8525 18.2456 43.7866 17.8629 43.4231 17.7411C42.7844 17.5487 42.0103 17.9475 41.62 18.4658C41.2095 18.9864 41.4209 19.5575 42.1345 19.5151C42.7444 19.4643 43.3791 19.1023 43.6836 18.553ZM49.2745 26.0559C49.5564 25.4887 49.1318 25.0247 48.5195 25.0553C47.844 25.0727 47.1533 25.4823 46.856 26.0924C46.466 26.9599 47.4075 27.2812 48.0947 27.0159C48.589 26.8553 49.0641 26.5326 49.2745 26.0559ZM35.8481 21.5659C36.3304 21.3039 37.0087 20.4438 36.29 20.0964C35.5582 19.8122 34.0067 20.754 34.3756 21.6149C34.737 22.0657 35.4266 21.8207 35.8481 21.5659ZM39.2067 26.8643C40.6927 25.8891 39.8409 24.5916 38.3453 25.4858C36.8367 26.4431 37.6909 27.7609 39.2067 26.8643ZM30.0238 32.5416C30.4811 32.2415 31.031 31.6841 30.7791 31.1177C30.2375 30.3592 28.9146 31.151 28.5816 31.8063C28.0309 32.8776 29.3023 33.037 30.0238 32.5416ZM48.3897 21.1871C48.829 20.9096 49.3563 20.3342 49.0306 19.8381C48.4725 19.287 47.4781 19.7322 47.002 20.2194C45.9749 21.4286 47.4574 21.8099 48.3897 21.1871ZM42.9686 32.7937C44.5511 31.7661 43.5966 30.2956 41.9843 31.2446C40.4019 32.2722 41.3563 33.7426 42.9686 32.7937Z" fill="url(#paint9_radial_1085_4945)"/>
<path d="M55.6628 20.2703L55.6572 20.2633C55.4727 20.0331 55.411 19.7927 55.4347 19.5532C55.4573 19.3243 55.5566 19.1105 55.6637 18.9216C55.718 18.8259 55.7773 18.7315 55.834 18.6418L55.8422 18.6288C55.8967 18.5424 55.9484 18.4605 55.9954 18.3792C56.0953 18.2066 56.1595 18.0602 56.175 17.9283C56.1909 17.7532 56.1526 17.6414 56.0961 17.5637C56.0366 17.4817 55.9401 17.415 55.803 17.3628C55.5407 17.2628 55.2004 17.2399 54.8773 17.2182C54.8523 17.2165 54.8274 17.2148 54.8026 17.2131C54.4904 17.2009 54.181 17.0807 53.9652 16.8676C53.7425 16.6477 53.6256 16.3327 53.7129 15.9705L53.7159 15.9581L53.7163 15.9582C53.7711 15.7795 53.8139 15.62 53.8359 15.478C53.858 15.3354 53.8568 15.2237 53.834 15.1364C53.8127 15.0548 53.771 14.9878 53.6943 14.9304C53.6134 14.8699 53.4844 14.8136 53.2798 14.7766C53.0234 14.7386 52.744 14.7905 52.42 14.8507C52.3645 14.861 52.3076 14.8715 52.2494 14.8819C51.8767 14.9484 51.4471 15.0059 51.0498 14.8366C50.7779 14.7418 50.6327 14.5456 50.5514 14.3377C50.4886 14.1772 50.4586 13.993 50.4341 13.8417C50.4289 13.8097 50.4239 13.7791 50.4189 13.7505C50.3845 13.5684 50.2401 13.4509 49.9821 13.3914L49.98 13.3909C49.641 13.3092 49.2913 13.3885 48.9053 13.5269C48.7888 13.5686 48.6783 13.612 48.5651 13.6565C48.4863 13.6874 48.4061 13.7189 48.3217 13.7507C48.1245 13.825 47.9191 13.8948 47.7114 13.9359L47.7094 13.9363C47.3231 14.0089 47.0366 13.9882 46.8073 13.8954C46.5787 13.8028 46.4338 13.6485 46.319 13.5175C46.3053 13.5019 46.2921 13.4868 46.2794 13.4721C46.1792 13.3571 46.1037 13.2703 45.9971 13.2054C45.8874 13.1387 45.7294 13.0885 45.4548 13.1116L45.4528 13.1117C45.1315 13.1356 44.8304 13.2504 44.5258 13.4076C44.3735 13.4861 44.2234 13.5737 44.0699 13.6642C44.0536 13.6738 44.0373 13.6835 44.021 13.6931C43.8845 13.7738 43.7449 13.8563 43.6042 13.9323C43.2896 14.1023 42.9506 14.251 42.578 14.2892C42.2044 14.3275 41.8127 14.2533 41.3917 14.0089C40.9292 13.8511 40.3405 14.0304 39.8669 14.3193C39.6881 14.4421 39.5153 14.5846 39.3371 14.7357C39.3069 14.7612 39.2766 14.7871 39.246 14.8131C39.0968 14.9402 38.9425 15.0715 38.7839 15.1931C38.4004 15.4871 37.9647 15.7457 37.4211 15.7984C37.197 15.8243 36.9868 15.8039 36.8002 15.7859L36.7919 15.7851C36.5969 15.7662 36.4266 15.7504 36.2497 15.7711C35.4799 15.8612 34.817 16.387 34.39 17.0614L34.387 17.0661L34.387 17.066C33.9344 17.7407 33.1738 18.2039 32.3717 18.3206C31.9833 18.387 31.6164 18.4507 31.3044 18.6163L31.2972 18.6201L31.2971 18.6199C30.7746 18.8717 30.3255 19.3212 30.1526 19.8735C29.938 20.5591 29.394 21.0873 28.7763 21.3998L28.7758 21.4C28.5892 21.4939 28.3921 21.5704 28.2063 21.6426C28.169 21.6571 28.1321 21.6714 28.0958 21.6857C27.8739 21.773 27.6697 21.8596 27.4869 21.9746L27.4812 21.9781L27.4811 21.978C26.9026 22.3166 26.4775 22.8655 26.5357 23.5039L26.5368 23.5161L26.5364 23.5161C26.5504 23.944 26.3609 24.3095 26.1081 24.6047C25.856 24.8992 25.5287 25.1384 25.2332 25.3211L25.2281 25.3242L25.2281 25.3242C24.8743 25.5292 24.4591 25.7934 24.1659 26.1111C23.8767 26.4245 23.7351 26.7559 23.839 27.1198C23.8579 27.1687 23.8801 27.2178 23.9051 27.2719C23.908 27.2781 23.9109 27.2843 23.9138 27.2906C23.937 27.3407 23.9625 27.3958 23.9853 27.4518C24.0377 27.5801 24.0839 27.7308 24.0778 27.9067L24.0775 27.9161L24.0773 27.9161C24.0244 28.5806 23.5545 29.0184 23.1427 29.3891C23.127 29.4033 23.1114 29.4173 23.0958 29.4313C22.679 29.8061 22.3269 30.1226 22.2273 30.5654L22.2265 30.569L22.2265 30.569C22.173 30.7891 22.213 30.9089 22.2714 30.9945C22.3351 31.0879 22.4296 31.1582 22.5591 31.2546C22.5751 31.2665 22.5917 31.2789 22.6089 31.2917C22.7492 31.3969 22.927 31.5372 23.0192 31.7575C23.1154 31.9873 23.1033 32.261 22.9693 32.6036L22.9679 32.6073L22.9678 32.6073C22.8816 32.816 22.7401 33.0223 22.6019 33.2138C22.5731 33.2538 22.5443 33.2933 22.5158 33.3323C22.403 33.487 22.295 33.635 22.2049 33.7857C22.0926 33.9736 22.0228 34.1427 22.01 34.2995C21.9981 34.4447 22.0337 34.5946 22.1641 34.7578C22.2628 34.8548 22.4228 34.8971 22.6662 34.9427C22.6825 34.9457 22.6992 34.9488 22.7163 34.9519C22.9272 34.9906 23.2013 35.0408 23.4045 35.2014L23.4096 35.2055L23.4096 35.2055C23.6291 35.3903 23.7309 35.6092 23.7494 35.8433C23.7669 36.0659 23.7078 36.2881 23.6381 36.4868C23.6029 36.5874 23.5626 36.688 23.5244 36.7834L23.5242 36.7839C23.4853 36.881 23.4485 36.9729 23.417 37.0628C23.3526 37.2459 23.3193 37.3961 23.3305 37.5228L23.3312 37.5297L23.331 37.5297C23.3443 37.7685 23.4796 37.9425 23.7046 38.0239C23.8183 38.065 23.953 38.0768 24.1137 38.0706C24.2316 38.066 24.3501 38.0526 24.4777 38.0383C24.5276 38.0327 24.5788 38.0269 24.6319 38.0215C24.9846 37.9853 25.415 37.9611 25.7688 38.2266C26.1451 38.4895 26.1557 38.9056 26.1475 39.2205C26.1463 39.2669 26.1446 39.3113 26.143 39.354C26.1387 39.4704 26.1348 39.5751 26.1414 39.6787C26.1502 39.8147 26.1766 39.9185 26.2294 39.9995C26.3684 40.2042 26.5814 40.2946 26.8446 40.3053C27.1136 40.3162 27.4164 40.2413 27.6846 40.1323L27.6923 40.1292L27.6924 40.1293C27.7254 40.1174 27.7594 40.105 27.7943 40.0923C28.0619 39.9947 28.381 39.8782 28.6985 39.8265C29.0602 39.7675 29.455 39.7859 29.7981 40.0325C29.977 40.1508 30.0786 40.3199 30.1516 40.4713C30.1795 40.5292 30.2058 40.5902 30.23 40.6462C30.2373 40.6631 30.2443 40.6795 30.2512 40.6953C30.2824 40.7667 30.3115 40.8297 30.3442 40.8865L30.351 40.8985L30.3506 40.8987C30.4711 41.1437 30.7182 41.2817 31.0344 41.2971L31.0437 41.2976L31.0437 41.2978C31.4642 41.3371 31.8506 41.1759 32.2626 40.939C32.3853 40.8684 32.5008 40.797 32.6192 40.7238C32.705 40.6708 32.7923 40.6168 32.885 40.5616C33.0966 40.4353 33.3188 40.3135 33.5522 40.2251L33.5558 40.2238L33.5558 40.2238C34.1035 40.0278 34.8071 39.9997 35.3203 40.4269L35.33 40.4349L35.3297 40.4352C35.9676 41.0342 36.8566 40.921 37.5908 40.4082L37.593 40.4067L37.593 40.4067C37.812 40.2579 38.0055 40.0679 38.2169 39.8588L38.2273 39.8485C38.4312 39.6467 38.6518 39.4285 38.9107 39.2471L38.9159 39.2434L38.916 39.2435C39.5143 38.8508 40.2908 38.5915 41.0317 38.8051L41.0418 38.808L41.0417 38.8082C41.9772 39.1291 43.0318 38.785 43.6625 38.009C43.7829 37.8488 43.8848 37.6836 43.9923 37.5093C44.0543 37.4087 44.1181 37.3051 44.1885 37.1977C44.3722 36.9173 44.5872 36.6344 44.8891 36.4162C45.2706 36.0901 45.712 35.9415 46.1513 35.8555C46.3718 35.8123 46.5956 35.7842 46.8124 35.7585C46.8391 35.7554 46.8656 35.7522 46.892 35.7491C47.0805 35.727 47.2629 35.7055 47.4413 35.6762C48.1275 35.5179 48.7526 35.0821 49.0727 34.4877C49.1449 34.345 49.1919 34.1927 49.2341 34.0266C49.2471 33.9757 49.26 33.9216 49.2733 33.8658C49.3015 33.7474 49.3316 33.6214 49.3677 33.5022M55.6628 20.2703L52.27 31.5818C52.0642 31.6754 51.849 31.7517 51.6327 31.8284C51.3371 31.9332 51.0395 32.0387 50.761 32.1899L50.662 32.0052C50.6618 32.0053 50.6616 32.0054 50.6614 32.0055C50.0854 32.3139 49.5633 32.84 49.3677 33.5022M55.6628 20.2703L55.6689 20.2767C55.8009 20.4155 55.9692 20.5111 56.1258 20.5878C56.1927 20.6205 56.2617 20.6517 56.3272 20.6813C56.339 20.6867 56.3507 20.692 56.3622 20.6972C56.4395 20.7322 56.5116 20.7656 56.5791 20.8009C56.716 20.8726 56.816 20.9435 56.8805 21.0271C56.9398 21.1038 56.9788 21.2037 56.9696 21.358L56.9693 21.3579L56.9693 21.3704C56.9692 21.6038 56.859 21.825 56.6687 22.0608C56.5329 22.2291 56.3734 22.3858 56.2051 22.551C56.1323 22.6225 56.0579 22.6956 55.9831 22.7719C55.7474 23.0122 55.5097 23.2836 55.3972 23.5974C55.2781 23.9297 55.3062 24.2881 55.553 24.6735L55.5597 24.684L55.5676 24.6937C55.612 24.7476 55.6601 24.8018 55.7056 24.853C55.7186 24.8676 55.7315 24.8821 55.7439 24.8962C55.8017 24.9617 55.8545 25.0235 55.9007 25.0864C55.9927 25.2119 56.048 25.3284 56.056 25.456L56.0557 25.4561L56.0571 25.4676C56.0706 25.5817 56.0433 25.7315 55.9736 25.8793L55.9733 25.8792L55.9686 25.8909C55.7631 26.405 55.285 26.7065 54.7336 27.0542C54.708 27.0704 54.6821 27.0867 54.6562 27.1031C54.1006 27.4543 53.482 27.866 53.3038 28.6349C53.2307 28.9342 53.2879 29.2144 53.335 29.4455L53.3381 29.4607C53.3883 29.7072 53.4249 29.9018 53.3763 30.1023C53.2266 30.6558 52.7311 31.1127 52.1791 31.3929L55.6628 20.2703ZM49.3677 33.5022C49.3678 33.5019 49.3679 33.5016 49.368 33.5013L49.5685 33.5623L49.3675 33.5028C49.3676 33.5026 49.3677 33.5024 49.3677 33.5022ZM31.4086 26.3419L31.4087 26.3419L31.411 26.3376C31.6064 25.9821 31.6102 25.6209 31.3916 25.3674C31.1822 25.1246 30.8284 25.0526 30.464 25.1294C30.0895 25.1973 29.6373 25.4255 29.3109 25.741C28.9855 26.0554 28.7375 26.5089 28.916 27.0066L28.9231 27.0263L28.934 27.0443C29.1133 27.3407 29.413 27.4299 29.6892 27.4253C29.9607 27.4207 30.2387 27.328 30.4492 27.2254L30.4493 27.2255L30.4556 27.2221C30.828 27.0245 31.1795 26.7369 31.4086 26.3419ZM35.1495 33.1093L35.1495 33.1092L35.1431 33.1093C34.6936 33.1157 34.228 33.2912 33.8598 33.5732C33.4916 33.8552 33.2022 34.2587 33.1386 34.7342L33.1382 34.7342L33.1373 34.7476C33.1207 34.9876 33.1861 35.1901 33.3205 35.3435C33.4511 35.4925 33.6301 35.5765 33.8105 35.618C34.1637 35.6993 34.5852 35.6328 34.8782 35.4802C35.3126 35.2756 35.7082 34.9608 35.9346 34.517C36.1047 34.2026 36.1184 33.8565 35.9721 33.5781C35.8231 33.2947 35.526 33.1154 35.1495 33.1093ZM43.8669 18.6548L43.8673 18.6541C43.9737 18.4604 44.0124 18.2322 43.9551 18.0225C43.8959 17.8056 43.7376 17.6257 43.4895 17.5425L43.4895 17.5424L43.4833 17.5405C43.1031 17.426 42.6976 17.491 42.3444 17.6449C41.9915 17.7988 41.6717 18.0494 41.454 18.3378C41.2202 18.6353 41.1315 18.9901 41.2645 19.287C41.4025 19.5952 41.7358 19.7487 42.1472 19.7242L42.1472 19.7243L42.1522 19.7239C42.8225 19.668 43.5243 19.2729 43.8669 18.6548ZM46.6676 26.0005L46.6675 26.0004L46.6649 26.0063C46.5527 26.2559 46.5255 26.4913 46.5876 26.6996C46.6501 26.909 46.7942 27.0617 46.9677 27.1608C47.3037 27.3526 47.7757 27.3619 48.1651 27.2134C48.6892 27.0419 49.2213 26.691 49.4643 26.145C49.6347 25.7987 49.5994 25.4535 49.3955 25.2002C49.1979 24.9549 48.8688 24.8288 48.5113 24.846C47.7652 24.8662 47.0016 25.3151 46.6676 26.0005ZM36.381 19.9078L36.3734 19.9042L36.3656 19.9012C36.1265 19.8083 35.8436 19.8222 35.5783 19.8897C35.3091 19.9583 35.0348 20.0877 34.7986 20.2554C34.5635 20.4223 34.3543 20.6355 34.2297 20.8788C34.1029 21.1261 34.061 21.4124 34.183 21.6972L34.1943 21.7234L34.2122 21.7458C34.4556 22.0494 34.8055 22.105 35.1178 22.0625C35.425 22.0208 35.7287 21.8824 35.9527 21.7476C36.2279 21.5967 36.5484 21.2866 36.7083 20.9541C36.7894 20.7856 36.8406 20.5871 36.7964 20.3902C36.7499 20.1825 36.6067 20.0169 36.381 19.9078ZM39.3136 27.0446L39.3137 27.0448L39.3219 27.0395C39.7169 26.7802 39.9754 26.4876 40.1017 26.195C40.2289 25.9007 40.2229 25.5993 40.0705 25.3613C39.9186 25.124 39.6474 24.9908 39.3283 24.9775C39.0101 24.9642 38.6363 25.0676 38.2376 25.306L38.2375 25.3059L38.2328 25.3089C37.8318 25.5634 37.5684 25.8538 37.4387 26.146C37.3082 26.4401 37.3126 26.7428 37.4651 26.9825C37.617 27.2212 37.8895 27.3562 38.2111 27.371C38.5319 27.3858 38.9097 27.2836 39.3136 27.0446ZM30.9705 31.0328L30.9619 31.0134L30.9496 30.9961C30.7761 30.7532 30.5354 30.6329 30.2763 30.6049C30.0243 30.5776 29.7611 30.6376 29.5206 30.7387C29.046 30.9383 28.5888 31.3297 28.3949 31.7109C28.2437 32.0053 28.1966 32.2773 28.2745 32.5093C28.3544 32.747 28.5474 32.8902 28.7603 32.9604C29.1712 33.0959 29.7358 32.9928 30.1408 32.7156C30.3826 32.5566 30.6585 32.3241 30.8424 32.0449C31.0284 31.7626 31.1358 31.4045 30.9705 31.0328ZM49.2057 19.7234L49.1935 19.7048L49.1777 19.6892C48.8244 19.3403 48.3461 19.3236 47.93 19.4373C47.5136 19.5512 47.114 19.8048 46.852 20.0729L46.8469 20.0781L46.8422 20.0837C46.5711 20.4028 46.4324 20.7044 46.4451 20.9777C46.4587 21.2691 46.6399 21.4706 46.8721 21.5798C47.0976 21.6857 47.3811 21.7128 47.6623 21.6764C47.9453 21.6397 48.2429 21.5367 48.504 21.3628C48.7414 21.2125 49.0091 20.9787 49.1762 20.7035C49.3457 20.4242 49.4296 20.0644 49.2057 19.7234ZM43.0751 32.9742L43.0752 32.9744L43.083 32.9694C43.9095 32.4326 44.1886 31.6911 43.8508 31.1649C43.5162 30.6438 42.7216 30.5674 41.8778 31.064L41.8777 31.0639L41.87 31.0689C41.0435 31.6056 40.7643 32.3472 41.1022 32.8733C41.4368 33.3945 42.2314 33.4708 43.0751 32.9742Z" stroke="url(#paint10_linear_1085_4945)" stroke-width="0.418983"/>
</g>
<g filter="url(#filter8_d_1085_4945)">
<ellipse rx="19.6931" ry="14.2238" transform="matrix(0.846324 -0.532669 0.534682 0.845054 38.6743 25.8581)" fill="url(#paint11_radial_1085_4945)"/>
</g>
<g filter="url(#filter9_d_1085_4945)">
<g filter="url(#filter10_i_1085_4945)">
<path d="M32.691 38.1227C32.691 38.1227 33.7247 39.0491 34.9804 38.9019C36.2362 38.7547 36.9161 38.0793 36.9161 38.0793C36.9161 38.0793 38.1043 36.6665 38.8444 36.8468C39.5845 37.0271 40.5796 37.2802 41.6992 36.6765C42.8367 36.0502 43.253 35.0565 43.253 35.0565C43.253 35.0565 43.8218 33.9628 44.7703 33.9954C45.7188 34.028 46.8672 33.6674 47.3995 33.1326C47.9317 32.5978 48.3318 32.1606 48.4707 31.4254C48.6096 30.6902 48.9476 30.0754 50.0269 29.8256C51.1063 29.5759 52.1185 28.7588 52.4158 27.7996C52.713 26.8404 52.4967 25.8798 52.4967 25.8798C52.4967 25.8798 52.7776 25.4772 53.0718 25.3605C53.3863 25.2415 55.0156 24.0851 55.1113 22.9852C55.2071 21.8853 54.7368 20.6874 54.7368 20.6874C54.7368 20.6874 57.3583 19.0655 55.0312 15.5381C55.0312 15.5381 55.8035 12.3459 52.5901 10.8738C52.5901 10.8738 51.7383 7.66656 48.6671 8.43737C48.6671 8.43737 47.4203 6.05695 44.8724 7.2594C44.3876 7.5011 44.0004 7.52594 44.0004 7.52594C44.0004 7.52594 43.4101 6.87619 42.7356 6.7293C42.0611 6.58241 41.6632 6.69067 41.0902 6.88108C40.5172 7.07149 39.5348 7.9672 38.9437 7.83107C38.5493 7.79514 38.605 7.39832 37.1038 7.55374C36.8048 7.62988 35.8589 7.96669 35.1659 8.70523C34.473 9.44377 33.9855 9.31604 33.9855 9.31604C33.9855 9.31604 32.8881 9.23926 32.4902 9.34752C32.0923 9.45578 31.1238 9.77472 30.2858 11.0232C29.8465 11.6499 29.1448 11.7938 29.1448 11.7938C29.1448 11.7938 27.3075 11.8859 26.3731 13.1868C25.5647 14.1648 26.3975 14.0877 24.9671 15.0154C24.0404 15.5143 23.5994 15.2579 22.5221 16.7399C22.046 17.5762 22.6598 17.7302 22.043 18.4188C21.4263 19.1073 20.9889 19.0558 20.4567 19.5907C19.9244 20.1255 18.8422 19.6567 19.6961 22.535C19.6961 22.535 19.3486 23.0688 18.6495 23.5821C17.9504 24.0954 17.8154 25.3847 17.9396 25.7399C18.0435 26.0975 17.9865 26.3096 18.4874 27.0725C18.4874 27.0725 16.3976 29.0224 19.0137 31.6942C19.0137 31.6942 18.7978 34.9034 22.1967 35.8607C22.1967 35.8607 23.9341 39.4366 26.9428 37.7899C26.9428 37.7899 28.0523 39.8783 30.5517 39.1334C31.9418 38.5597 31.9618 38.2081 32.691 38.1227Z" fill="url(#paint12_radial_1085_4945)"/>
<path d="M32.691 38.1227C32.691 38.1227 33.7247 39.0491 34.9804 38.9019C36.2362 38.7547 36.9161 38.0793 36.9161 38.0793C36.9161 38.0793 38.1043 36.6665 38.8444 36.8468C39.5845 37.0271 40.5796 37.2802 41.6992 36.6765C42.8367 36.0502 43.253 35.0565 43.253 35.0565C43.253 35.0565 43.8218 33.9628 44.7703 33.9954C45.7188 34.028 46.8672 33.6674 47.3995 33.1326C47.9317 32.5978 48.3318 32.1606 48.4707 31.4254C48.6096 30.6902 48.9476 30.0754 50.0269 29.8256C51.1063 29.5759 52.1185 28.7588 52.4158 27.7996C52.713 26.8404 52.4967 25.8798 52.4967 25.8798C52.4967 25.8798 52.7776 25.4772 53.0718 25.3605C53.3863 25.2415 55.0156 24.0851 55.1113 22.9852C55.2071 21.8853 54.7368 20.6874 54.7368 20.6874C54.7368 20.6874 57.3583 19.0655 55.0312 15.5381C55.0312 15.5381 55.8035 12.3459 52.5901 10.8738C52.5901 10.8738 51.7383 7.66656 48.6671 8.43737C48.6671 8.43737 47.4203 6.05695 44.8724 7.2594C44.3876 7.5011 44.0004 7.52594 44.0004 7.52594C44.0004 7.52594 43.4101 6.87619 42.7356 6.7293C42.0611 6.58241 41.6632 6.69067 41.0902 6.88108C40.5172 7.07149 39.5348 7.9672 38.9437 7.83107C38.5493 7.79514 38.605 7.39832 37.1038 7.55374C36.8048 7.62988 35.8589 7.96669 35.1659 8.70523C34.473 9.44377 33.9855 9.31604 33.9855 9.31604C33.9855 9.31604 32.8881 9.23926 32.4902 9.34752C32.0923 9.45578 31.1238 9.77472 30.2858 11.0232C29.8465 11.6499 29.1448 11.7938 29.1448 11.7938C29.1448 11.7938 27.3075 11.8859 26.3731 13.1868C25.5647 14.1648 26.3975 14.0877 24.9671 15.0154C24.0404 15.5143 23.5994 15.2579 22.5221 16.7399C22.046 17.5762 22.6598 17.7302 22.043 18.4188C21.4263 19.1073 20.9889 19.0558 20.4567 19.5907C19.9244 20.1255 18.8422 19.6567 19.6961 22.535C19.6961 22.535 19.3486 23.0688 18.6495 23.5821C17.9504 24.0954 17.8154 25.3847 17.9396 25.7399C18.0435 26.0975 17.9865 26.3096 18.4874 27.0725C18.4874 27.0725 16.3976 29.0224 19.0137 31.6942C19.0137 31.6942 18.7978 34.9034 22.1967 35.8607C22.1967 35.8607 23.9341 39.4366 26.9428 37.7899C26.9428 37.7899 28.0523 39.8783 30.5517 39.1334C31.9418 38.5597 31.9618 38.2081 32.691 38.1227Z" fill="url(#paint13_linear_1085_4945)" fill-opacity="0.5"/>
</g>
<g filter="url(#filter11_d_1085_4945)">
<path d="M51.1357 10.9219C51.7982 10.9676 52.7871 10.9957 52.7057 11.8682C52.6253 12.5762 51.5406 13.299 52.1429 14.0504C52.5651 14.4942 53.5492 14.4817 53.5011 15.2887C53.501 16.501 51.195 17.1407 52.0517 18.4787C52.2676 18.7411 52.5644 18.9941 52.5874 19.3612C52.6066 19.5233 52.5675 19.7128 52.4854 19.8868C51.9945 21.1155 50.142 21.2501 49.8299 22.6016C49.7053 23.1093 50.0262 23.5649 49.9015 24.0726C49.7305 24.7091 49.1734 25.2058 48.5923 25.4998C48.1052 25.7212 47.5656 25.846 47.0833 26.1079C46.5427 26.3972 46.0666 26.8844 45.8908 27.4803C45.7875 27.8211 45.7473 28.1751 45.5808 28.5028C45.2275 29.1606 44.5441 29.631 43.8044 29.7997C42.9586 29.9398 42.0305 29.9046 41.3412 30.4989C40.7923 30.8919 40.5403 31.5378 40.15 32.0561C39.4693 32.896 38.3235 33.2767 37.2962 32.9243C36.6372 32.7343 35.9249 32.9615 35.3534 33.3366C34.8605 33.682 34.5083 34.1752 34.0332 34.4979C33.2557 35.041 32.2479 35.2 31.5086 34.5057C31.0758 34.1454 30.4611 34.1557 29.9489 34.339C29.0843 34.6662 28.3226 35.5156 27.3467 35.4243C26.975 35.4062 26.6472 35.2391 26.4849 34.9088C26.3297 34.6393 26.2687 34.2971 26.0016 34.1229C25.4401 33.716 24.6767 34.0314 24.086 34.2443C23.5179 34.4752 22.7507 34.5855 22.3773 34.0334C22.0516 33.5373 22.5274 32.7008 21.9683 32.3142C21.4043 31.8871 20.5565 32.3561 19.9558 32.1388C19.6555 32.0301 19.4623 31.7856 19.4441 31.459C19.3827 30.7675 20.304 29.8789 19.597 29.2836C19.2572 29.0152 18.6342 29.1292 18.3301 28.8155C17.6574 27.9901 18.7933 27.1791 19.0964 26.4451C19.5849 25.1962 18.0829 25.5158 18.3452 24.4372C18.5872 23.3609 20.1 22.9579 20.1907 21.8172C20.1999 21.549 20.052 21.3403 19.9625 21.1042C19.6876 20.1706 20.7342 19.4728 21.4451 19.0609C22.019 18.706 22.6726 18.157 22.6493 17.4406C22.5807 16.6883 23.0829 16.0748 23.6974 15.7152C24.0986 15.4628 24.5775 15.3451 25.0038 15.1308C25.5849 14.8368 26.0813 14.3472 26.2749 13.7287C26.4686 13.1102 26.9649 12.6206 27.5282 12.3492C27.8759 12.1647 28.2786 12.097 28.661 12.0317C29.4079 11.9237 30.1164 11.4915 30.5352 10.8672C30.9849 10.157 31.6968 9.58059 32.5474 9.48104C32.9524 9.43364 33.3159 9.55547 33.7209 9.50807C34.6954 9.41457 35.3154 8.58177 36.075 8.06138C36.5727 7.75656 37.2445 7.53411 37.8022 7.73595C39.3698 8.66204 40.3142 6.92829 41.7592 6.82081C42.9994 6.71676 42.5466 7.9204 43.9927 7.64842C44.755 7.49755 45.548 6.91162 46.3512 7.10528C46.6467 7.17343 46.8911 7.32975 46.9473 7.63137C47.0108 7.99379 47.041 8.42175 47.4474 8.55911C48.1184 8.85043 48.946 8.38372 49.6359 8.4879C50.538 8.64945 50.461 9.21322 50.2389 9.93782C50.1012 10.5087 50.5996 10.9024 51.1357 10.9219ZM27.5496 20.1546C27.8874 19.5397 27.4677 19.1163 26.8268 19.2529C26.1633 19.3717 25.1596 20.085 25.4355 20.854C25.6909 21.2762 26.2912 21.1443 26.6794 20.955C27.0272 20.7705 27.345 20.5073 27.5496 20.1546ZM32.0713 28.3374C32.358 27.8107 32.0858 27.2467 31.4687 27.2367C30.6692 27.2481 29.7774 27.8661 29.6686 28.6802C29.6157 29.4467 30.6045 29.4748 31.1071 29.2105C31.5155 29.0188 31.8715 28.7306 32.0713 28.3374ZM40.0059 12.471C40.1748 12.1636 40.1089 11.7809 39.7454 11.6591C39.1067 11.4667 38.3326 11.8655 37.9423 12.3838C37.5317 12.9044 37.7431 13.4755 38.4567 13.4331C39.0667 13.3823 39.7014 13.0203 40.0059 12.471ZM45.5968 19.9739C45.8787 19.4067 45.4541 18.9427 44.8418 18.9733C44.1662 18.9907 43.4756 19.4002 43.1783 20.0104C42.7883 20.8779 43.7298 21.1992 44.417 20.9338C44.9113 20.7733 45.3864 20.4505 45.5968 19.9739ZM32.1704 15.4838C32.6527 15.2219 33.331 14.3617 32.6123 14.0144C31.8805 13.7302 30.3289 14.672 30.6979 15.5329C31.0593 15.9837 31.7489 15.7386 32.1704 15.4838ZM35.529 20.7823C37.015 19.8071 36.1632 18.5095 34.6676 19.4037C33.1589 20.3611 34.0132 21.6789 35.529 20.7823ZM26.3461 26.4596C26.8033 26.1595 27.3532 25.602 27.1013 25.0356C26.5598 24.2771 25.2368 25.0689 24.9038 25.7243C24.3532 26.7956 25.6246 26.955 26.3461 26.4596ZM44.7119 15.105C45.1513 14.8276 45.6786 14.2522 45.3529 13.7561C44.7948 13.205 43.8004 13.6501 43.3243 14.1373C42.2972 15.3465 43.7796 15.7278 44.7119 15.105ZM39.2909 26.7116C40.8734 25.684 39.9189 24.2136 38.3066 25.1625C36.7242 26.1902 37.6786 27.6606 39.2909 26.7116Z" fill="white"/>
<path d="M51.9851 14.1882L51.9795 14.1813C51.795 13.9511 51.7333 13.7107 51.757 13.4711C51.7796 13.2423 51.8789 13.0284 51.986 12.8396C52.0402 12.7439 52.0996 12.6495 52.1563 12.5597L52.1644 12.5468C52.219 12.4604 52.2707 12.3784 52.3177 12.2972C52.4176 12.1246 52.4818 11.9782 52.4973 11.8463C52.5132 11.6712 52.4749 11.5594 52.4184 11.4817C52.3588 11.3997 52.2624 11.3329 52.1253 11.2807C51.863 11.1808 51.5227 11.1579 51.1996 11.1361C51.1746 11.1344 51.1497 11.1328 51.1249 11.131C50.8126 11.1189 50.5033 10.9986 50.2875 10.7855C50.0648 10.5657 49.9479 10.2506 50.0352 9.88846L50.0382 9.87608L50.0386 9.8762C50.0934 9.69748 50.1362 9.53797 50.1582 9.39598C50.1803 9.25333 50.1791 9.14165 50.1563 9.05438C50.1349 8.97277 50.0933 8.90573 50.0166 8.84835C49.9357 8.7879 49.8067 8.73154 49.6021 8.69459C49.3457 8.65654 49.0663 8.70844 48.7423 8.76862C48.6868 8.77894 48.6299 8.7895 48.5717 8.79989C48.199 8.86636 47.7694 8.92391 47.3721 8.75461C47.1001 8.65972 46.955 8.46357 46.8736 8.25567C46.8109 8.09515 46.7809 7.91094 46.7564 7.75971C46.7511 7.72763 46.7462 7.69703 46.7412 7.66846C46.7067 7.48639 46.5624 7.36888 46.3043 7.30937L46.3023 7.3089C45.9633 7.22715 45.6136 7.30652 45.2276 7.44484C45.1111 7.48656 45.0006 7.52996 44.8874 7.57443C44.8086 7.6054 44.7284 7.63689 44.644 7.66869C44.4467 7.743 44.2414 7.81277 44.0337 7.85389L44.0317 7.85427C43.6454 7.92691 43.3589 7.90615 43.1296 7.81334C42.901 7.72079 42.756 7.56647 42.6412 7.43551C42.6276 7.41991 42.6144 7.40479 42.6016 7.39012C42.5015 7.27504 42.426 7.18824 42.3194 7.12339C42.2097 7.05671 42.0516 7.00649 41.7771 7.02953L41.7751 7.0297C41.4538 7.05358 41.1527 7.16835 40.8481 7.32552C40.6958 7.40411 40.5457 7.49163 40.3922 7.58219C40.376 7.59178 40.3597 7.60141 40.3433 7.61106C40.2069 7.69169 40.0672 7.77424 39.9265 7.85025C39.6119 8.02026 39.2728 8.16894 38.9003 8.20713C38.5267 8.24543 38.135 8.17122 37.7139 7.92683C37.2515 7.76906 36.6627 7.94839 36.1892 8.23724C36.0104 8.36011 35.8376 8.50258 35.6594 8.65365C35.6292 8.67922 35.5988 8.7051 35.5682 8.73115C35.419 8.85819 35.2648 8.98951 35.1062 9.1111C34.7227 9.40503 34.287 9.66363 33.7434 9.71636C33.5193 9.74229 33.309 9.72191 33.1224 9.70383L33.1142 9.70304C32.9192 9.68415 32.7489 9.66838 32.572 9.68908C31.8022 9.77917 31.1393 10.305 30.7122 10.9794L30.7093 10.984L30.7092 10.984C30.2566 11.6587 29.496 12.1219 28.6939 12.2386C28.3055 12.3049 27.9387 12.3686 27.6267 12.5342L27.6195 12.538L27.6194 12.5379C27.0969 12.7897 26.6478 13.2392 26.4749 13.7915C26.2603 14.4771 25.7163 15.0052 25.0986 15.3177L25.0981 15.318C24.9114 15.4118 24.7144 15.4884 24.5285 15.5606C24.4912 15.5751 24.4544 15.5894 24.4181 15.6036C24.1961 15.6909 23.9919 15.7775 23.8091 15.8925L23.8034 15.8961L23.8034 15.896C23.2249 16.2346 22.7998 16.7835 22.858 17.4218L22.8591 17.434L22.8587 17.434C22.8726 17.862 22.6832 18.2275 22.4304 18.5227C22.1782 18.8171 21.851 19.0564 21.5555 19.2391L21.5504 19.2422L21.5503 19.2421C21.1966 19.4471 20.7813 19.7114 20.4882 20.0291C20.199 20.3425 20.0574 20.6739 20.1612 21.0377C20.1802 21.0866 20.2024 21.1358 20.2274 21.1899C20.2302 21.196 20.2331 21.2023 20.2361 21.2086C20.2593 21.2587 20.2848 21.3137 20.3076 21.3698C20.36 21.498 20.4062 21.6487 20.4001 21.8247L20.3997 21.8341L20.3995 21.8341C20.3467 22.4986 19.8768 22.9364 19.465 23.3071C19.4493 23.3212 19.4337 23.3353 19.4181 23.3493C19.0013 23.724 18.6492 24.0405 18.5496 24.4834L18.5488 24.4869L18.5488 24.4869C18.4952 24.7071 18.5353 24.8268 18.5937 24.9125C18.6574 25.0059 18.7518 25.0762 18.8813 25.1726C18.8974 25.1845 18.914 25.1969 18.9311 25.2097C19.0714 25.3148 19.2493 25.4552 19.3415 25.6755C19.4377 25.9052 19.4256 26.179 19.2916 26.5216L19.2901 26.5252L19.2901 26.5252C19.2039 26.734 19.0623 26.9402 18.9242 27.1317C18.8953 27.1718 18.8665 27.2112 18.8381 27.2502C18.7252 27.405 18.6173 27.553 18.5272 27.7037C18.4149 27.8916 18.3451 28.0607 18.3323 28.2175C18.3204 28.3627 18.356 28.5126 18.4864 28.6758C18.585 28.7728 18.7451 28.815 18.9885 28.8607C19.0047 28.8637 19.0215 28.8668 19.0386 28.8699C19.2495 28.9086 19.5235 28.9588 19.7268 29.1194L19.7319 29.1234L19.7318 29.1235C19.9513 29.3083 20.0532 29.5272 20.0716 29.7613C20.0892 29.9838 20.0301 30.2061 19.9604 30.4048C19.9251 30.5054 19.8849 30.6059 19.8467 30.7013L19.8465 30.7019C19.8076 30.799 19.7708 30.8908 19.7392 30.9807C19.6749 31.1638 19.6416 31.3141 19.6528 31.4407L19.6534 31.4476L19.6533 31.4476C19.6666 31.6864 19.8019 31.8604 20.0269 31.9418C20.1406 31.983 20.2753 31.9948 20.4359 31.9885C20.5538 31.9839 20.6724 31.9706 20.8 31.9563C20.8499 31.9507 20.9011 31.9449 20.9541 31.9395C21.3069 31.9032 21.7373 31.879 22.0911 32.1446C22.4673 32.4075 22.478 32.8236 22.4698 33.1385C22.4686 33.1849 22.4669 33.2292 22.4653 33.272C22.4609 33.3884 22.457 33.4931 22.4637 33.5967C22.4725 33.7327 22.4989 33.8365 22.5517 33.9175C22.6907 34.1222 22.9036 34.2125 23.1668 34.2232C23.4359 34.2341 23.7386 34.1593 24.0068 34.0503L24.0146 34.0471L24.0146 34.0473C24.0477 34.0354 24.0817 34.023 24.1166 34.0102C24.3842 33.9126 24.7033 33.7962 25.0207 33.7444C25.3825 33.6855 25.7773 33.7039 26.1204 33.9504C26.2992 34.0688 26.4008 34.2379 26.4739 34.3893C26.5018 34.4472 26.5281 34.5081 26.5522 34.5641C26.5595 34.581 26.5666 34.5975 26.5735 34.6133C26.6046 34.6846 26.6337 34.7477 26.6664 34.8045L26.6733 34.8164L26.6729 34.8166C26.7933 35.0617 27.0405 35.1997 27.3566 35.2151L27.366 35.2156L27.3659 35.2158C27.7864 35.2551 28.1729 35.0939 28.5848 34.857C28.7076 34.7864 28.8231 34.715 28.9415 34.6418C29.0273 34.5888 29.1146 34.5348 29.2072 34.4795C29.4189 34.3533 29.641 34.2314 29.8745 34.1431L29.8781 34.1417L29.8781 34.1417C30.4258 33.9458 31.1294 33.9176 31.6426 34.3448L31.6522 34.3529L31.652 34.3532C32.2899 34.9522 33.1789 34.8389 33.913 34.3262L33.9153 34.3246L33.9153 34.3246C34.1343 34.1759 34.3278 33.9858 34.5391 33.7768L34.5496 33.7664C34.7535 33.5647 34.974 33.3465 35.233 33.165L35.2382 33.1614L35.2383 33.1615C35.8365 32.7688 36.6131 32.5095 37.354 32.7231L37.3641 32.726L37.364 32.7262C38.2995 33.0471 39.354 32.7029 39.9848 31.927C40.1052 31.7667 40.207 31.6016 40.3146 31.4272C40.3765 31.3267 40.4404 31.2231 40.5108 31.1156C40.6944 30.8353 40.9095 30.5524 41.2114 30.3341C41.5929 30.008 42.0343 29.8594 42.4736 29.7734C42.694 29.7302 42.9179 29.7022 43.1347 29.6765C43.1614 29.6733 43.1879 29.6702 43.2143 29.6671C43.4028 29.6449 43.5851 29.6235 43.7635 29.5941C44.4497 29.4358 45.0749 29 45.395 28.4056C45.4672 28.2629 45.5141 28.1107 45.5564 27.9446C45.5694 27.8937 45.5823 27.8396 45.5956 27.7837C45.6238 27.6653 45.6539 27.5393 45.69 27.42M51.9851 14.1882L48.5923 25.4998C48.3865 25.5933 48.1713 25.6696 47.955 25.7463C47.6594 25.8511 47.3618 25.9566 47.0833 26.1079L46.9842 25.9232C46.9841 25.9233 46.9839 25.9234 46.9837 25.9235C46.4077 26.2318 45.8857 26.7579 45.69 27.42M51.9851 14.1882L51.9912 14.1947C52.1232 14.3334 52.2915 14.4291 52.4481 14.5057C52.515 14.5385 52.584 14.5697 52.6495 14.5993C52.6613 14.6046 52.673 14.6099 52.6845 14.6152C52.7618 14.6502 52.8339 14.6836 52.9014 14.7189C53.0383 14.7905 53.1382 14.8615 53.2028 14.945C53.2621 15.0218 53.3011 15.1217 53.2919 15.2759L53.2916 15.2759L53.2916 15.2884C53.2915 15.5217 53.1813 15.7429 52.991 15.9788C52.8552 16.1471 52.6956 16.3037 52.5274 16.469C52.4546 16.5405 52.3802 16.6135 52.3054 16.6898C52.0697 16.9302 51.8319 17.2016 51.7195 17.5154C51.6004 17.8477 51.6285 18.2061 51.8752 18.5915L51.882 18.602L51.8899 18.6117C51.9342 18.6655 51.9824 18.7197 52.0279 18.7709C52.0409 18.7856 52.0537 18.8 52.0662 18.8141C52.124 18.8796 52.1768 18.9414 52.223 19.0044C52.315 19.1298 52.3703 19.2464 52.3783 19.374L52.378 19.374L52.3793 19.3856C52.3929 19.4996 52.3656 19.6495 52.2959 19.7973L52.2955 19.7971L52.2908 19.8089C52.0854 20.323 51.6073 20.6245 51.0559 20.9722C51.0303 20.9884 51.0044 21.0046 50.9785 21.0211C50.4229 21.3722 49.8043 21.7839 49.6261 22.5528C49.553 22.8521 49.6102 23.1324 49.6573 23.3634L49.6604 23.3787C49.7106 23.6252 49.7472 23.8198 49.6986 24.0203C49.5489 24.5737 49.0534 25.0306 48.5013 25.3109L51.9851 14.1882ZM45.69 27.42C45.6901 27.4198 45.6902 27.4195 45.6903 27.4193L45.8908 27.4803L45.6898 27.4208C45.6899 27.4205 45.69 27.4203 45.69 27.42ZM27.7309 20.2598L27.731 20.2599L27.7333 20.2556C27.9286 19.9001 27.9325 19.5389 27.7138 19.2853C27.5045 19.0425 27.1507 18.9706 26.7862 19.0473C26.4118 19.1152 25.9596 19.3435 25.6332 19.6589C25.3078 19.9734 25.0598 20.4269 25.2383 20.9245L25.2454 20.9443L25.2563 20.9622C25.4356 21.2587 25.7352 21.3479 26.0115 21.3432C26.2829 21.3387 26.561 21.2459 26.7715 21.1433L26.7716 21.1434L26.7779 21.1401C27.1503 20.9425 27.5018 20.6549 27.7309 20.2598ZM31.4717 27.0273L31.4717 27.0272L31.4654 27.0273C31.0159 27.0337 30.5503 27.2091 30.1821 27.4911C29.8138 27.7731 29.5245 28.1767 29.4609 28.6522L29.4605 28.6521L29.4595 28.6655C29.443 28.9056 29.5084 29.108 29.6428 29.2615C29.7734 29.4105 29.9524 29.4945 30.1328 29.536C30.4859 29.6172 30.9074 29.5507 31.2005 29.3981C31.6349 29.1935 32.0305 28.8788 32.2568 28.435C32.427 28.1206 32.4407 27.7745 32.2944 27.4961C32.1454 27.2127 31.8483 27.0334 31.4717 27.0273ZM40.1892 12.5727L40.1896 12.572C40.296 12.3784 40.3347 12.1502 40.2774 11.9405C40.2182 11.7236 40.0599 11.5436 39.8118 11.4605L39.8118 11.4604L39.8056 11.4585C39.4254 11.344 39.0198 11.409 38.6667 11.5629C38.3137 11.7168 37.994 11.9674 37.7762 12.2558C37.5424 12.5532 37.4538 12.908 37.5867 13.2049C37.7248 13.5132 38.0581 13.6666 38.4695 13.6422L38.4695 13.6422L38.4744 13.6418C39.1448 13.586 39.8466 13.1908 40.1892 12.5727ZM42.9899 19.9184L42.9898 19.9184L42.9872 19.9243C42.875 20.1738 42.8477 20.4092 42.9099 20.6176C42.9724 20.8269 43.1164 20.9797 43.29 21.0788C43.626 21.2706 44.098 21.2799 44.4873 21.1313C45.0115 20.9598 45.5436 20.609 45.7866 20.063C45.957 19.7166 45.9217 19.3714 45.7177 19.1182C45.5202 18.8729 45.1911 18.7468 44.8336 18.7639C44.0875 18.7841 43.3239 19.2331 42.9899 19.9184ZM32.7032 13.8258L32.6957 13.8222L32.6879 13.8191C32.4488 13.7263 32.1659 13.7401 31.9005 13.8077C31.6314 13.8762 31.3571 14.0057 31.1208 14.1734C30.8857 14.3403 30.6766 14.5535 30.5519 14.7967C30.4252 15.0441 30.3833 15.3304 30.5053 15.6151L30.5166 15.6414L30.5344 15.6637C30.7779 15.9674 31.1278 16.023 31.4401 15.9805C31.7472 15.9387 32.051 15.8004 32.275 15.6655C32.5502 15.5146 32.8707 15.2046 33.0306 14.8721C33.1116 14.7035 33.1629 14.5051 33.1187 14.3082C33.0722 14.1005 32.9289 13.9349 32.7032 13.8258ZM35.6359 20.9626L35.636 20.9628L35.6442 20.9574C36.0392 20.6982 36.2977 20.4055 36.424 20.113C36.5511 19.8187 36.5452 19.5172 36.3928 19.2792C36.2409 19.042 35.9697 18.9088 35.6505 18.8955C35.3324 18.8822 34.9586 18.9855 34.5598 19.2239L34.5598 19.2239L34.5551 19.2269C34.1541 19.4813 33.8907 19.7717 33.761 20.0639C33.6305 20.3581 33.6349 20.6608 33.7874 20.9005C33.9393 21.1392 34.2118 21.2742 34.5334 21.289C34.8542 21.3038 35.2319 21.2015 35.6359 20.9626ZM27.2928 24.9508L27.2842 24.9314L27.2718 24.9141C27.0984 24.6712 26.8577 24.5508 26.5986 24.5228C26.3466 24.4956 26.0833 24.5556 25.8429 24.6567C25.3683 24.8562 24.9111 25.2476 24.7172 25.6289C24.566 25.9233 24.5189 26.1952 24.5968 26.4272C24.6767 26.665 24.8697 26.8082 25.0825 26.8783C25.4935 27.0138 26.0581 26.9107 26.463 26.6336C26.7049 26.4746 26.9808 26.242 27.1647 25.9628C27.3506 25.6805 27.4581 25.3224 27.2928 24.9508ZM45.528 13.6413L45.5158 13.6228L45.5 13.6072C45.1467 13.2583 44.6684 13.2416 44.2523 13.3553C43.8359 13.4692 43.4363 13.7228 43.1743 13.9909L43.1692 13.9961L43.1645 14.0016C42.8934 14.3208 42.7547 14.6224 42.7674 14.8957C42.7809 15.1871 42.9622 15.3886 43.1944 15.4977C43.4199 15.6037 43.7034 15.6308 43.9846 15.5943C44.2676 15.5576 44.5652 15.4546 44.8263 15.2807C45.0637 15.1304 45.3314 14.8966 45.4985 14.6214C45.668 14.3422 45.7519 13.9823 45.528 13.6413ZM39.3974 26.8922L39.3975 26.8924L39.4052 26.8873C40.2318 26.3506 40.5109 25.6091 40.1731 25.0829C39.8384 24.5617 39.0438 24.4854 38.2001 24.982L38.2 24.9818L38.1923 24.9868C37.3657 25.5236 37.0866 26.2651 37.4245 26.7913C37.7591 27.3124 38.5537 27.3888 39.3974 26.8922Z" stroke="url(#paint14_linear_1085_4945)" stroke-width="0.418983"/>
</g>
</g>
</g>
</g>
<defs>
<filter id="filter0_i_1085_4945" x="16.9565" y="6.72504" width="22.8677" height="19.9341" filterUnits="userSpaceOnUse" color-interpolation-filters="sRGB">
<feFlood flood-opacity="0" result="BackgroundImageFix"/>
<feBlend mode="normal" in="SourceGraphic" in2="BackgroundImageFix" result="shape"/>
<feColorMatrix in="SourceAlpha" type="matrix" values="0 0 0 0 0 0 0 0 0 0 0 0 0 0 0 0 0 0 127 0" result="hardAlpha"/>
<feOffset dx="-0.209491" dy="-0.628474"/>
<feGaussianBlur stdDeviation="0.837966"/>
<feComposite in2="hardAlpha" operator="arithmetic" k2="-1" k3="1"/>
<feColorMatrix type="matrix" values="0 0 0 0 0.633576 0 0 0 0 0.708414 0 0 0 0 0.85809 0 0 0 0.67 0"/>
<feBlend mode="normal" in2="shape" result="effect1_innerShadow_1085_4945"/>
</filter>
<filter id="filter1_d_1085_4945" x="16.9951" y="7.44336" width="22.6095" height="18.6066" filterUnits="userSpaceOnUse" color-interpolation-filters="sRGB">
<feFlood flood-opacity="0" result="BackgroundImageFix"/>
<feColorMatrix in="SourceAlpha" type="matrix" values="0 0 0 0 0 0 0 0 0 0 0 0 0 0 0 0 0 0 127 0" result="hardAlpha"/>
<feOffset dx="0.418983" dy="0.837966"/>
<feGaussianBlur stdDeviation="0.418983"/>
<feColorMatrix type="matrix" values="0 0 0 0 1 0 0 0 0 1 0 0 0 0 1 0 0 0 1 0"/>
<feBlend mode="normal" in2="BackgroundImageFix" result="effect1_dropShadow_1085_4945"/>
<feBlend mode="normal" in="SourceGraphic" in2="effect1_dropShadow_1085_4945" result="shape"/>
</filter>
<filter id="filter2_d_1085_4945" x="16.1416" y="5.67773" width="22.5196" height="20.1339" filterUnits="userSpaceOnUse" color-interpolation-filters="sRGB">
<feFlood flood-opacity="0" result="BackgroundImageFix"/>
<feColorMatrix in="SourceAlpha" type="matrix" values="0 0 0 0 0 0 0 0 0 0 0 0 0 0 0 0 0 0 127 0" result="hardAlpha"/>
<feOffset dy="0.837966"/>
<feGaussianBlur stdDeviation="0.209492"/>
<feColorMatrix type="matrix" values="0 0 0 0 0.664046 0 0 0 0 0.628125 0 0 0 0 0.871875 0 0 0 0.67 0"/>
<feBlend mode="normal" in2="BackgroundImageFix" result="effect1_dropShadow_1085_4945"/>
<feBlend mode="normal" in="SourceGraphic" in2="effect1_dropShadow_1085_4945" result="shape"/>
</filter>
<filter id="filter3_d_1085_4945" x="14.9883" y="3.75781" width="23.4962" height="20.5626" filterUnits="userSpaceOnUse" color-interpolation-filters="sRGB">
<feFlood flood-opacity="0" result="BackgroundImageFix"/>
<feColorMatrix in="SourceAlpha" type="matrix" values="0 0 0 0 0 0 0 0 0 0 0 0 0 0 0 0 0 0 127 0" result="hardAlpha"/>
<feOffset dx="0.418983" dy="0.837966"/>
<feGaussianBlur stdDeviation="0.209492"/>
<feColorMatrix type="matrix" values="0 0 0 0 0.570702 0 0 0 0 0.507292 0 0 0 0 0.942708 0 0 0 0.78 0"/>
<feBlend mode="normal" in2="BackgroundImageFix" result="effect1_dropShadow_1085_4945"/>
<feBlend mode="normal" in="SourceGraphic" in2="effect1_dropShadow_1085_4945" result="shape"/>
</filter>
<filter id="filter4_i_1085_4945" x="14.7788" y="3.12934" width="22.8677" height="19.9341" filterUnits="userSpaceOnUse" color-interpolation-filters="sRGB">
<feFlood flood-opacity="0" result="BackgroundImageFix"/>
<feBlend mode="normal" in="SourceGraphic" in2="BackgroundImageFix" result="shape"/>
<feColorMatrix in="SourceAlpha" type="matrix" values="0 0 0 0 0 0 0 0 0 0 0 0 0 0 0 0 0 0 127 0" result="hardAlpha"/>
<feOffset dx="-0.209491" dy="-0.628474"/>
<feGaussianBlur stdDeviation="0.837966"/>
<feComposite in2="hardAlpha" operator="arithmetic" k2="-1" k3="1"/>
<feColorMatrix type="matrix" values="0 0 0 0 0.722674 0 0 0 0 0.771447 0 0 0 0 0.868993 0 0 0 0.67 0"/>
<feBlend mode="normal" in2="shape" result="effect1_innerShadow_1085_4945"/>
</filter>
<filter id="filter5_d_1085_4945" x="14.8193" y="3.8457" width="22.6095" height="18.6066" filterUnits="userSpaceOnUse" color-interpolation-filters="sRGB">
<feFlood flood-opacity="0" result="BackgroundImageFix"/>
<feColorMatrix in="SourceAlpha" type="matrix" values="0 0 0 0 0 0 0 0 0 0 0 0 0 0 0 0 0 0 127 0" result="hardAlpha"/>
<feOffset dx="0.418983" dy="0.837966"/>
<feGaussianBlur stdDeviation="0.418983"/>
<feColorMatrix type="matrix" values="0 0 0 0 1 0 0 0 0 1 0 0 0 0 1 0 0 0 1 0"/>
<feBlend mode="normal" in2="BackgroundImageFix" result="effect1_dropShadow_1085_4945"/>
<feBlend mode="normal" in="SourceGraphic" in2="effect1_dropShadow_1085_4945" result="shape"/>
</filter>
<filter id="filter6_i_1085_4945" x="21.1694" y="12.1127" width="38.5064" height="33.2613" filterUnits="userSpaceOnUse" color-interpolation-filters="sRGB">
<feFlood flood-opacity="0" result="BackgroundImageFix"/>
<feBlend mode="normal" in="SourceGraphic" in2="BackgroundImageFix" result="shape"/>
<feColorMatrix in="SourceAlpha" type="matrix" values="0 0 0 0 0 0 0 0 0 0 0 0 0 0 0 0 0 0 127 0" result="hardAlpha"/>
<feOffset dx="-0.209491" dy="-0.628474"/>
<feGaussianBlur stdDeviation="0.837966"/>
<feComposite in2="hardAlpha" operator="arithmetic" k2="-1" k3="1"/>
<feColorMatrix type="matrix" values="0 0 0 0 0.633576 0 0 0 0 0.708414 0 0 0 0 0.85809 0 0 0 0.67 0"/>
<feBlend mode="normal" in2="shape" result="effect1_innerShadow_1085_4945"/>
</filter>
<filter id="filter7_d_1085_4945" x="21.3798" y="12.8965" width="37.0568" height="30.2921" filterUnits="userSpaceOnUse" color-interpolation-filters="sRGB">
<feFlood flood-opacity="0" result="BackgroundImageFix"/>
<feColorMatrix in="SourceAlpha" type="matrix" values="0 0 0 0 0 0 0 0 0 0 0 0 0 0 0 0 0 0 127 0" result="hardAlpha"/>
<feOffset dx="0.418983" dy="0.837966"/>
<feGaussianBlur stdDeviation="0.418983"/>
<feColorMatrix type="matrix" values="0 0 0 0 1 0 0 0 0 1 0 0 0 0 1 0 0 0 1 0"/>
<feBlend mode="normal" in2="BackgroundImageFix" result="effect1_dropShadow_1085_4945"/>
<feBlend mode="normal" in="SourceGraphic" in2="effect1_dropShadow_1085_4945" result="shape"/>
</filter>
<filter id="filter8_d_1085_4945" x="19.9306" y="9.9043" width="37.4864" height="33.1642" filterUnits="userSpaceOnUse" color-interpolation-filters="sRGB">
<feFlood flood-opacity="0" result="BackgroundImageFix"/>
<feColorMatrix in="SourceAlpha" type="matrix" values="0 0 0 0 0 0 0 0 0 0 0 0 0 0 0 0 0 0 127 0" result="hardAlpha"/>
<feOffset dy="0.837966"/>
<feGaussianBlur stdDeviation="0.209492"/>
<feColorMatrix type="matrix" values="0 0 0 0 0.664046 0 0 0 0 0.628125 0 0 0 0 0.871875 0 0 0 0.67 0"/>
<feBlend mode="normal" in2="BackgroundImageFix" result="effect1_dropShadow_1085_4945"/>
<feBlend mode="normal" in="SourceGraphic" in2="effect1_dropShadow_1085_4945" result="shape"/>
</filter>
<filter id="filter9_d_1085_4945" x="17.6973" y="6.66113" width="39.1348" height="33.8898" filterUnits="userSpaceOnUse" color-interpolation-filters="sRGB">
<feFlood flood-opacity="0" result="BackgroundImageFix"/>
<feColorMatrix in="SourceAlpha" type="matrix" values="0 0 0 0 0 0 0 0 0 0 0 0 0 0 0 0 0 0 127 0" result="hardAlpha"/>
<feOffset dx="0.418983" dy="0.837966"/>
<feGaussianBlur stdDeviation="0.209492"/>
<feColorMatrix type="matrix" values="0 0 0 0 0.570702 0 0 0 0 0.507292 0 0 0 0 0.942708 0 0 0 0.78 0"/>
<feBlend mode="normal" in2="BackgroundImageFix" result="effect1_dropShadow_1085_4945"/>
<feBlend mode="normal" in="SourceGraphic" in2="effect1_dropShadow_1085_4945" result="shape"/>
</filter>
<filter id="filter10_i_1085_4945" x="17.4878" y="6.03266" width="38.5064" height="33.2613" filterUnits="userSpaceOnUse" color-interpolation-filters="sRGB">
<feFlood flood-opacity="0" result="BackgroundImageFix"/>
<feBlend mode="normal" in="SourceGraphic" in2="BackgroundImageFix" result="shape"/>
<feColorMatrix in="SourceAlpha" type="matrix" values="0 0 0 0 0 0 0 0 0 0 0 0 0 0 0 0 0 0 127 0" result="hardAlpha"/>
<feOffset dx="-0.209491" dy="-0.628474"/>
<feGaussianBlur stdDeviation="0.837966"/>
<feComposite in2="hardAlpha" operator="arithmetic" k2="-1" k3="1"/>
<feColorMatrix type="matrix" values="0 0 0 0 0.722674 0 0 0 0 0.771447 0 0 0 0 0.868993 0 0 0 0.67 0"/>
<feBlend mode="normal" in2="shape" result="effect1_innerShadow_1085_4945"/>
</filter>
<filter id="filter11_d_1085_4945" x="17.7021" y="6.81445" width="37.0568" height="30.2921" filterUnits="userSpaceOnUse" color-interpolation-filters="sRGB">
<feFlood flood-opacity="0" result="BackgroundImageFix"/>
<feColorMatrix in="SourceAlpha" type="matrix" values="0 0 0 0 0 0 0 0 0 0 0 0 0 0 0 0 0 0 127 0" result="hardAlpha"/>
<feOffset dx="0.418983" dy="0.837966"/>
<feGaussianBlur stdDeviation="0.418983"/>
<feColorMatrix type="matrix" values="0 0 0 0 1 0 0 0 0 1 0 0 0 0 1 0 0 0 1 0"/>
<feBlend mode="normal" in2="BackgroundImageFix" result="effect1_dropShadow_1085_4945"/>
<feBlend mode="normal" in="SourceGraphic" in2="effect1_dropShadow_1085_4945" result="shape"/>
</filter>
<radialGradient id="paint0_radial_1085_4945" cx="0" cy="0" r="1" gradientUnits="userSpaceOnUse" gradientTransform="translate(38.1961 58.1375) rotate(90) scale(14.2176 82.0989)">
<stop stop-color="#D3DEEB"/>
<stop offset="0.148052" stop-color="#E2EBF5" stop-opacity="0.869792"/>
<stop offset="1" stop-color="white" stop-opacity="0"/>
</radialGradient>
<radialGradient id="paint1_radial_1085_4945" cx="0" cy="0" r="1" gradientUnits="userSpaceOnUse" gradientTransform="translate(27.8797 15.5547) rotate(61.6081) scale(9.15878 12.7894)">
<stop stop-color="#DCE2EF"/>
<stop offset="0.860243" stop-color="#E5E9F3"/>
<stop offset="1" stop-color="#D2DBEC"/>
</radialGradient>
<radialGradient id="paint2_radial_1085_4945" cx="0" cy="0" r="1" gradientUnits="userSpaceOnUse" gradientTransform="translate(26.9349 13.2911) rotate(43.1211) scale(18.4563 12.4676)">
<stop stop-color="white"/>
<stop offset="1" stop-color="#F5F6F8"/>
</radialGradient>
<linearGradient id="paint3_linear_1085_4945" x1="39.2992" y1="18.502" x2="22.1826" y2="21.3099" gradientUnits="userSpaceOnUse">
<stop stop-color="white"/>
<stop offset="1" stop-color="white" stop-opacity="0"/>
</linearGradient>
<radialGradient id="paint4_radial_1085_4945" cx="0" cy="0" r="1" gradientUnits="userSpaceOnUse" gradientTransform="translate(11.6509 8.41513) rotate(90) scale(8.41513 11.891)">
<stop stop-color="#9480FE"/>
<stop offset="0.796178" stop-color="#937FFB"/>
<stop offset="0.872964" stop-color="#CAC0FE"/>
<stop offset="0.927083" stop-color="#9783FD"/>
<stop offset="0.989583" stop-color="#7067D6"/>
</radialGradient>
<radialGradient id="paint5_radial_1085_4945" cx="0" cy="0" r="1" gradientUnits="userSpaceOnUse" gradientTransform="translate(25.702 11.959) rotate(61.6081) scale(9.15878 12.7894)">
<stop stop-color="#DCE2EF"/>
<stop offset="0.860243" stop-color="#E9EDF5"/>
<stop offset="1" stop-color="#BBC9E3"/>
</radialGradient>
<linearGradient id="paint6_linear_1085_4945" x1="36.5472" y1="6.40814" x2="14.9679" y2="15.7491" gradientUnits="userSpaceOnUse">
<stop stop-color="white" stop-opacity="0"/>
<stop offset="0.162377" stop-color="#E4E9F4"/>
<stop offset="0.304856" stop-color="#E4E9F4"/>
<stop offset="0.389299" stop-color="white" stop-opacity="0"/>
<stop offset="0.449395" stop-color="#E4E9F4"/>
<stop offset="0.52677" stop-color="#EFF2F8"/>
<stop offset="0.585369" stop-color="white" stop-opacity="0"/>
<stop offset="0.628608" stop-color="#DEE4F1"/>
<stop offset="0.7066" stop-color="#E2E8F3" stop-opacity="0"/>
<stop offset="0.746908" stop-color="#E7EBF5"/>
<stop offset="1" stop-color="white" stop-opacity="0"/>
</linearGradient>
<linearGradient id="paint7_linear_1085_4945" x1="37.1234" y1="14.9043" x2="20.0068" y2="17.7122" gradientUnits="userSpaceOnUse">
<stop stop-color="#F6F8FB"/>
<stop offset="1" stop-color="white" stop-opacity="0"/>
</linearGradient>
<radialGradient id="paint8_radial_1085_4945" cx="0" cy="0" r="1" gradientUnits="userSpaceOnUse" gradientTransform="translate(39.486 26.6038) rotate(61.6081) scale(15.4808 21.6175)">
<stop stop-color="#DCE2EF"/>
<stop offset="0.860243" stop-color="#F2F4F9"/>
<stop offset="1" stop-color="#EDF1F7"/>
</radialGradient>
<radialGradient id="paint9_radial_1085_4945" cx="0" cy="0" r="1" gradientUnits="userSpaceOnUse" gradientTransform="translate(37.8909 22.7807) rotate(43.1211) scale(31.196 21.0736)">
<stop stop-color="white"/>
<stop offset="1" stop-color="#F5F6F8"/>
</radialGradient>
<linearGradient id="paint10_linear_1085_4945" x1="58.7898" y1="31.5885" x2="29.8582" y2="36.3347" gradientUnits="userSpaceOnUse">
<stop stop-color="white"/>
<stop offset="1" stop-color="white" stop-opacity="0"/>
</linearGradient>
<radialGradient id="paint11_radial_1085_4945" cx="0" cy="0" r="1" gradientUnits="userSpaceOnUse" gradientTransform="translate(19.6931 14.2238) rotate(90) scale(14.2238 20.099)">
<stop stop-color="#9480FE"/>
<stop offset="0.796178" stop-color="#937FFB"/>
<stop offset="0.872964" stop-color="#CAC0FE"/>
<stop offset="0.927083" stop-color="#9783FD"/>
<stop offset="0.989583" stop-color="#7067D6"/>
</radialGradient>
<radialGradient id="paint12_radial_1085_4945" cx="0" cy="0" r="1" gradientUnits="userSpaceOnUse" gradientTransform="translate(35.8044 20.5237) rotate(61.6081) scale(15.4808 21.6175)">
<stop stop-color="#DCE2EF"/>
<stop offset="0.860243" stop-color="#F2F4F9"/>
<stop offset="1" stop-color="#EDF1F7"/>
</radialGradient>
<linearGradient id="paint13_linear_1085_4945" x1="54.1357" y1="11.1413" x2="17.661" y2="26.9301" gradientUnits="userSpaceOnUse">
<stop stop-color="white" stop-opacity="0"/>
<stop offset="0.162377" stop-color="#E4E9F4"/>
<stop offset="0.304856" stop-color="#E4E9F4"/>
<stop offset="0.389299" stop-color="white" stop-opacity="0"/>
<stop offset="0.449395" stop-color="#E4E9F4"/>
<stop offset="0.52677" stop-color="#EFF2F8"/>
<stop offset="0.585369" stop-color="white" stop-opacity="0"/>
<stop offset="0.628608" stop-color="#DEE4F1"/>
<stop offset="0.7066" stop-color="#E2E8F3" stop-opacity="0"/>
<stop offset="0.746908" stop-color="#E7EBF5"/>
<stop offset="1" stop-color="white" stop-opacity="0"/>
</linearGradient>
<linearGradient id="paint14_linear_1085_4945" x1="55.1121" y1="25.5065" x2="26.1804" y2="30.2527" gradientUnits="userSpaceOnUse">
<stop stop-color="white"/>
<stop offset="1" stop-color="white" stop-opacity="0"/>
</linearGradient>
<clipPath id="clip0_1085_4945">
<rect width="77" height="64.1667" fill="white" transform="translate(0 0.833008)"/>
</clipPath>
<clipPath id="clip1_1085_4945">
<rect width="45.4597" height="42.3173" fill="white" transform="translate(14.4531 3.41016)"/>
</clipPath>
</defs>
</svg>
