<svg width="88" height="88" viewBox="0 0 88 88" fill="none" xmlns="http://www.w3.org/2000/svg">
<g clip-path="url(#clip0_1085_4908)">
<path d="M87.5735 66.8395L86.8907 63.3516C87.3277 65.5606 85.5525 67.5474 83.477 68.074L21.425 84.8607C20.856 85.0368 20.2553 85.0855 19.6654 85.0034C19.0755 84.9212 18.5108 84.7103 18.0113 84.3854C17.7188 84.1813 17.4616 83.9307 17.25 83.6434L19.4177 86.6218C19.6259 86.9067 19.8797 87.1551 20.1688 87.357C20.6576 87.6769 21.2103 87.8857 21.7882 87.969C22.3661 88.0523 22.9552 88.008 23.5143 87.8392L84.2314 71.4868C86.2831 70.9772 88.007 69.0041 87.5735 66.8395Z" fill="url(#paint0_linear_1085_4908)"/>
<g filter="url(#filter0_i_1085_4908)">
<path d="M62.4966 0.832095C62.9709 0.689905 63.4627 0.615084 63.9577 0.609822C64.4041 0.603368 64.8487 0.666826 65.2754 0.797899C65.6511 0.913686 65.9995 1.10445 66.2996 1.35871C66.5792 1.59201 66.7884 1.89868 66.9038 2.24438L86.7651 62.942C86.9341 63.4576 86.9797 64.0058 86.8982 64.5424C86.8151 65.0783 86.6184 65.5901 86.3213 66.0436C86.0074 66.5271 85.6042 66.9461 85.1333 67.278C84.6244 67.6415 84.0543 67.9102 83.4503 68.0714L21.4223 84.8581C20.8573 85.0154 20.2677 85.0641 19.6846 85.0017C19.1627 84.9441 18.6589 84.7763 18.2065 84.5093C17.7776 84.255 17.414 83.9037 17.1448 83.4834C16.8674 83.0425 16.6978 82.5422 16.6498 82.0233L10.3446 19.0277C10.3123 18.6534 10.3708 18.2768 10.5153 17.93C10.6753 17.5523 10.8993 17.2052 11.1776 16.9041C11.4805 16.5534 11.8323 16.2482 12.2222 15.9979C12.6352 15.7374 13.0821 15.5349 13.5501 15.3961L62.4966 0.832095Z" fill="#5A6D90"/>
</g>
<path d="M27.5403 13.6709L28.223 15.2131C28.2214 15.2256 28.2214 15.2383 28.223 15.2507V15.2849V15.3191C28.2222 15.3305 28.2222 15.342 28.223 15.3533L27.5403 13.8111V13.7769V13.7427C27.5403 13.7427 27.5403 13.7188 27.5403 13.7051C27.5387 13.6938 27.5387 13.6822 27.5403 13.6709Z" fill="#858585"/>
<g filter="url(#filter1_d_1085_4908)">
<path d="M82.2792 61.0166L82.764 63.8583L20.0429 80.0124L18.418 77.5195L82.2792 61.0166Z" fill="#DCE3F1"/>
<path d="M11.8384 16.3721L63.5135 2.03011L81.9144 60.8126L18.6665 77.1571L11.8384 16.3721Z" fill="white" stroke="url(#paint1_linear_1085_4908)" stroke-width="0.574917"/>
<path d="M69.0829 52.5871C71.8959 51.8758 72.9712 55.097 70.0695 55.9725L24.407 68.2043C24.1328 68.2804 23.8477 68.3093 23.5638 68.2898C21.6248 68.1154 21.6692 65.9645 23.1473 65.0822C23.3939 64.9267 23.6635 64.8113 23.9461 64.7403L69.0829 52.5871Z" fill="#E6EDF6"/>
<path d="M66.0452 42.9855C68.865 42.2776 69.913 45.5023 67.0181 46.3743L23.6633 57.9838C23.3918 58.0554 23.1103 58.0808 22.8304 58.059C20.8914 57.888 20.9187 55.7405 22.4002 54.8583C22.6469 54.7029 22.9165 54.5875 23.1991 54.5163L66.0452 42.9855Z" fill="#E6EDF6"/>
<path d="M63.3356 34.2714C66.1588 33.5636 67.1897 36.7951 64.3017 37.6602L22.2817 48.9141C22.0063 48.9901 21.7201 49.019 21.4351 48.9996C19.496 48.8286 19.5131 46.6845 20.9981 45.7989C21.2447 45.6435 21.5143 45.5281 21.7969 45.4569L63.3356 34.2714Z" fill="#E6EDF6"/>
<path d="M44.7549 17.1505C46.9056 16.5349 48.5101 18.7508 46.4618 20.1939C46.212 20.3503 45.9389 20.4658 45.6528 20.5359L15.54 28.6198C12.5598 29.2626 12.3515 25.8841 14.9904 25.1557L44.7549 17.1505Z" fill="#E6EDF6"/>
<path d="M46.46 24.6741C49.2183 23.8671 50.1673 27.3893 47.3544 28.0766L17.245 36.1434C16.2857 36.4272 15.0192 36.0579 14.8554 34.9705C12.7252 31.8313 45.4973 25.6966 46.46 24.6741Z" fill="#E6EDF6"/>
</g>
<g filter="url(#filter2_d_1085_4908)">
<path d="M47.8182 6.178C47.9717 6.15779 48.1278 6.1788 48.2706 6.23888C48.4133 6.29897 48.5376 6.39597 48.6306 6.51996C48.6682 6.59519 48.716 6.72514 48.6614 6.56442C48.5624 6.27033 48.436 5.77791 48.3405 5.49067C48.2756 5.32653 48.2381 5.09057 48.1595 4.93669C48.0438 4.77177 47.8775 4.64916 47.6859 4.58745C47.4943 4.52574 47.2879 4.5283 47.0979 4.59473L27.7691 9.8096C27.5409 9.85205 27.3354 9.97514 27.19 10.1565C27.0447 10.3379 26.9691 10.5654 26.9771 10.7979L27.5404 14.0567L28.2232 15.599L27.6565 12.3538C27.6427 12.2477 27.6514 12.1399 27.682 12.0373C27.7126 11.9348 27.7644 11.8399 27.834 11.7588C27.99 11.5674 28.2029 11.4309 28.4416 11.3689L47.6065 6.21562C47.6755 6.19568 47.7465 6.18307 47.8182 6.178Z" fill="#CED7EA"/>
<g filter="url(#filter3_i_1085_4908)">
<path d="M46.3536 1.54102C48.5589 0.904977 51.4947 1.60941 52.157 4.02022L52.9934 7.22779C53.6044 9.7446 51.3445 11.9434 49.0232 12.5316L29.1824 17.8285C26.9532 18.4851 24.0173 17.6233 23.6077 15.1099L23.0854 11.8476C22.8191 10.0831 23.9696 8.44858 25.4238 7.51161C25.5638 6.85163 45.466 1.89666 46.3536 1.54102ZM49.0095 8.29812L48.2141 5.09739C48.1856 4.99685 48.1344 4.9042 48.0646 4.82654C47.9948 4.74889 47.9081 4.68829 47.8113 4.64942C47.5838 4.55929 47.3328 4.54727 47.0978 4.61523L27.7691 9.80957C27.5411 9.85267 27.336 9.97594 27.1908 10.1571C27.0456 10.3384 26.9698 10.5656 26.9771 10.7978L27.5403 14.0567C27.5762 14.2118 27.663 14.3503 27.7868 14.4501C27.9106 14.5499 28.0642 14.6052 28.2231 14.6072C28.3484 14.6165 28.4743 14.6038 28.5952 14.5696L48.238 9.31031C48.6818 9.19747 49.1085 8.78028 48.9993 8.28444" fill="#E9EFF3"/>
</g>
<path d="M53.4567 8.85872L52.6203 5.66141L52.1697 4.03711L53.0061 7.24468C53.1409 7.78116 53.1409 8.34275 53.0061 8.87924C52.5418 10.7258 50.8588 12.0595 49.0256 12.5485L29.1848 17.8283C27.6589 18.2352 25.8735 18.0711 24.6514 16.9973C24.3187 16.7011 24.0493 16.3405 23.8594 15.9373C23.9618 16.163 24.5967 17.5718 24.7094 17.7496C25.7335 19.4594 28.0344 19.8595 29.8471 19.3568L49.524 14.1146C51.8522 13.5333 54.0643 11.3413 53.4567 8.85872Z" fill="#CED7EA"/>
</g>
<g filter="url(#filter4_d_1085_4908)">
<path d="M22.6466 45.8399L20.2467 44.2327L16.3789 41.6406L17.4781 44.3626L21.2981 46.9444L23.6673 48.5482L22.6466 45.8399Z" fill="#BBAFFE"/>
<path d="M32.7531 38.3988C33.1249 38.9122 33.4108 39.4828 33.5998 40.0881C33.1696 38.8707 32.6439 36.3778 31.8075 35.3827C26.6869 28.7317 13.3118 33.885 14.4315 42.3826C14.6329 43.559 15.7116 45.6791 16.0291 46.5374C14.6227 43.2649 16.5514 39.5786 19.2654 37.6465C23.1536 34.7433 29.5306 34.2269 32.7531 38.3988Z" fill="url(#paint2_linear_1085_4908)"/>
<path d="M36.6746 36.1484C36.7053 36.2202 37.6099 39.4312 37.6031 39.4005C38.361 42.3926 37.4563 45.4258 35.6129 47.9152C31.2296 53.9029 21.415 56.4095 15.2225 51.8306C14.2872 51.1319 13.4955 50.2587 12.8909 49.2591L11.6543 46.4232C12.9174 48.516 14.9391 49.9225 17.3117 50.6851C23.3848 52.6377 30.9224 50.0559 34.6946 44.9744C36.6165 42.4029 37.5519 39.2295 36.6746 36.1484Z" fill="url(#paint3_linear_1085_4908)"/>
<path d="M31.3652 37.0635L22.6465 45.8415L23.6706 48.5499L25.9237 46.2656L32.2494 39.8607L31.3652 37.0635Z" fill="#6A61CC"/>
<g filter="url(#filter5_i_1085_4908)">
<path d="M31.379 37.0642L24.9406 43.5375L22.6466 45.8423L20.2467 44.2351L16.3789 41.643L18.6559 39.4032L22.5339 41.9508L28.9552 35.5459L31.379 37.0642Z" fill="url(#paint4_linear_1085_4908)"/>
</g>
<g filter="url(#filter6_i_1085_4908)">
<path d="M21.4632 29.8C26.0615 28.5415 31.3836 29.2049 34.695 32.6758C37.9722 36.0715 37.5215 41.3616 34.695 44.9863C29.844 51.6237 17.9197 54.0995 12.246 47.315C9.32045 43.7416 10.1636 38.5404 13.0551 35.1413C15.2381 32.5318 18.176 30.6654 21.4632 29.8ZM25.1501 47.4313C30.5336 46.1695 35.6337 39.7954 31.3768 34.837C27.3144 30.5899 19.5754 32.2108 16.1582 36.5468C14.1407 38.9405 13.5945 42.6097 15.6735 45.0718C17.9061 47.7562 21.8182 48.3238 25.1501 47.4245" fill="url(#paint5_linear_1085_4908)"/>
</g>
<path d="M39.378 26.9417C39.4645 26.9533 39.5462 26.9885 39.6142 27.0434C39.6822 27.0982 39.7339 27.1707 39.7637 27.2529L39.6101 26.6647L39.5896 26.5861C39.494 26.1552 39.1936 25.0815 39.098 24.6677C39.0639 24.5104 38.9922 24.2847 38.9581 24.1342C38.9296 24.0534 38.8795 23.982 38.8133 23.9278C38.7471 23.8735 38.6673 23.8385 38.5825 23.8265C38.5339 23.8196 38.4844 23.8196 38.4358 23.8265C38.3197 23.8265 38.3641 23.8265 38.3504 23.8265C37.9442 23.8675 21.3772 25.2969 21.3123 25.3072C21.116 25.3279 20.9218 25.3657 20.732 25.42C20.5376 25.4751 20.3481 25.546 20.1653 25.632L4.42444 33.097C4.37625 33.1209 4.33052 33.1496 4.28789 33.1825C4.18917 33.243 4.11301 33.3344 4.07108 33.4425C4.02915 33.5506 4.02377 33.6694 4.05576 33.7809C4.12744 34.0989 4.20596 34.4272 4.28789 34.7418C4.71311 36.3643 5.22593 37.9624 5.82408 39.5292C6.5478 41.581 8.01231 44.597 8.79064 46.3137C8.31044 45.265 7.85527 44.2049 7.42514 43.1334C6.702 41.3229 6.09092 39.4693 5.59536 37.5835C5.49868 37.2462 5.42118 36.9037 5.36323 36.5576C5.36323 36.2874 5.79336 36.0173 5.76605 36.0549L21.2953 28.6515C21.4793 28.5655 21.6714 28.498 21.8688 28.4498C22.0515 28.4033 22.2375 28.3713 22.4252 28.354C22.7666 28.3267 39.1526 26.9417 39.1834 26.9451C39.2481 26.9406 39.3131 26.9395 39.378 26.9417Z" fill="url(#paint6_linear_1085_4908)"/>
<path d="M44.5312 37.5913C44.5699 34.1463 44.2991 30.7049 43.7221 27.3086C43.5958 26.4742 42.9745 24.0395 42.7936 23.2051C42.7936 23.229 42.7936 23.253 42.7936 23.2769C43.647 27.4864 43.8382 31.8053 43.7392 36.1072C43.7111 38.3831 43.5377 40.6549 43.2203 42.9087C42.6094 46.205 41.4705 49.3806 39.8475 52.3126C38.1444 55.426 36.1155 58.3491 33.7949 61.0325C33.0348 61.9262 32.2474 62.7959 31.4326 63.6416C30.8625 64.2538 30.2719 64.8624 29.4765 65.1599C28.6711 65.4936 27.7782 65.5513 26.9367 65.3241C26.3051 65.136 25.0284 64.7359 23.3795 64.0759C17.088 61.5625 10.0659 57.1376 6.59065 50.7396C5.98755 49.6362 5.41176 48.5203 4.86328 47.3918L6.22879 50.2403C7.84691 53.7317 9.96344 57.1889 12.8412 59.6886C16.1833 62.7936 20.6929 65.2865 24.5231 66.8253C26.1447 67.4818 27.4044 67.8854 28.0257 68.07C28.3451 68.1636 28.676 68.2119 29.0088 68.2136C30.4119 68.2376 31.5692 67.4579 32.4465 66.4149C33.4331 65.389 34.3855 64.3085 35.2936 63.2005C39.1921 58.4302 42.5137 52.9589 43.8075 46.8686C44.4527 43.8388 44.48 40.686 44.5312 37.5913Z" fill="url(#paint7_linear_1085_4908)"/>
<g filter="url(#filter7_i_1085_4908)">
<path d="M38.4953 20.8539C39.0069 20.8052 39.5228 20.8282 40.0281 20.9223C40.4833 21.0081 40.9222 21.165 41.3287 21.3874C41.6973 21.5921 42.023 21.8661 42.288 22.1944C42.5427 22.5134 42.7182 22.8885 42.8001 23.2887C42.94 23.9726 43.0971 24.8206 43.2439 25.8739C43.3906 26.9271 43.5272 28.1924 43.6262 29.6354C43.7252 31.0785 43.7832 32.7609 43.7696 34.6212C43.7559 36.4814 43.674 38.5845 43.4896 40.8722C43.2694 43.3118 42.7122 45.709 41.834 47.9952C40.9615 50.2702 39.8732 52.4562 38.5841 54.5231C37.3824 56.4603 36.0538 58.3155 34.607 60.0765C33.2415 61.7248 31.9511 63.1542 30.8348 64.269C30.7059 64.3918 30.5691 64.5061 30.4252 64.6109C30.2803 64.7206 30.1286 64.8211 29.9711 64.9118C29.8121 65.0001 29.6479 65.0789 29.4796 65.1478C29.3118 65.2165 29.1396 65.2736 28.9641 65.3188C28.6297 65.4063 28.2856 65.4511 27.94 65.4521C27.7698 65.4528 27.5998 65.4413 27.4313 65.4179C27.2651 65.3947 27.1008 65.3593 26.9397 65.3119C26.3082 65.1238 25.0314 64.7238 23.3826 64.0638C21.4175 63.2785 19.5091 62.3576 17.6714 61.3076C15.4711 60.0622 13.411 58.5832 11.5266 56.8963C9.5503 55.1326 7.8799 53.0526 6.58345 50.7411C5.5286 48.8124 4.64444 47.0103 3.90024 45.3552C3.15604 43.7002 2.57228 42.2229 2.09094 40.8824C1.6096 39.5419 1.25798 38.3964 0.98147 37.3876C0.704955 36.3788 0.493302 35.5445 0.356752 34.8845C0.273131 34.4799 0.280126 34.0618 0.377234 33.6603C0.480415 33.2328 0.65716 32.8267 0.89954 32.46C1.16284 32.0573 1.48374 31.6955 1.85198 31.3862C2.24953 31.0476 2.69037 30.7635 3.16286 30.5416L18.733 23.1792C18.8457 23.1245 18.9618 23.0732 19.0744 23.0254C19.1871 22.9775 19.31 22.9296 19.4158 22.8852C19.5216 22.8407 19.6548 22.7997 19.7572 22.7621C19.8596 22.7244 19.9995 22.6868 20.1224 22.6526C20.2453 22.6184 20.3682 22.5877 20.4911 22.5603C20.614 22.5329 20.7403 22.5056 20.8632 22.4816L21.2353 22.4235L21.6108 22.3791L38.4953 20.8539ZM38.963 24.1641C38.9512 24.1079 38.9267 24.0553 38.8913 24.0102C38.8542 23.9647 38.8091 23.9265 38.7582 23.8974C38.7005 23.8661 38.6383 23.8442 38.5738 23.8324C38.5014 23.822 38.4278 23.822 38.3553 23.8324L21.3582 25.2994H21.2046L21.051 25.3233L20.8974 25.3541L20.7472 25.3917L20.6004 25.4362L20.4399 25.5046L20.2965 25.5593L20.1532 25.6242L4.43961 33.096C4.37108 33.1257 4.3077 33.1661 4.25185 33.2157C4.1995 33.2582 4.15451 33.309 4.11872 33.3662C4.08324 33.418 4.05777 33.476 4.04362 33.5372C4.03 33.5933 4.03 33.652 4.04362 33.7081C4.18358 34.3339 4.38499 35.1341 4.66492 36.1018C4.94485 37.0696 5.32036 38.1878 5.79829 39.453C6.27622 40.7183 6.87021 42.1579 7.59734 43.7207C8.32447 45.2834 9.20864 47.0206 10.2498 48.8671C11.3646 50.7945 12.7759 52.5336 14.4317 54.0205C16.025 55.4609 17.764 56.7308 19.6206 57.8094C21.2292 58.7511 22.9002 59.5817 24.6218 60.2954C26.1272 60.9178 27.3767 61.3384 28.1755 61.5846C29.1996 60.5348 30.3706 59.2524 31.5654 57.782C32.8344 56.2255 34.0021 54.5886 35.0611 52.8817C36.1854 51.0795 37.1386 49.1755 37.9081 47.195C38.6808 45.2204 39.1816 43.1496 39.3965 41.0397C39.6014 38.8375 39.7072 36.8371 39.7379 35.0315C39.7686 33.226 39.7379 31.653 39.6628 30.2441C39.5877 28.8352 39.4716 27.6486 39.3453 26.633C39.219 25.6174 39.0791 24.7967 38.9562 24.1572" fill="url(#paint8_linear_1085_4908)"/>
</g>
</g>
</g>
<defs>
<filter id="filter0_i_1085_4908" x="10.0485" y="0.321916" width="76.889" height="84.7064" filterUnits="userSpaceOnUse" color-interpolation-filters="sRGB">
<feFlood flood-opacity="0" result="BackgroundImageFix"/>
<feBlend mode="normal" in="SourceGraphic" in2="BackgroundImageFix" result="shape"/>
<feColorMatrix in="SourceAlpha" type="matrix" values="0 0 0 0 0 0 0 0 0 0 0 0 0 0 0 0 0 0 127 0" result="hardAlpha"/>
<feOffset dx="-0.287459" dy="-0.287459"/>
<feGaussianBlur stdDeviation="0.143729"/>
<feComposite in2="hardAlpha" operator="arithmetic" k2="-1" k3="1"/>
<feColorMatrix type="matrix" values="0 0 0 0 0.655208 0 0 0 0 0.695891 0 0 0 0 0.770833 0 0 0 1 0"/>
<feBlend mode="normal" in2="shape" result="effect1_innerShadow_1085_4908"/>
</filter>
<filter id="filter1_d_1085_4908" x="11.5254" y="1.67871" width="72.6756" height="80.6337" filterUnits="userSpaceOnUse" color-interpolation-filters="sRGB">
<feFlood flood-opacity="0" result="BackgroundImageFix"/>
<feColorMatrix in="SourceAlpha" type="matrix" values="0 0 0 0 0 0 0 0 0 0 0 0 0 0 0 0 0 0 127 0" result="hardAlpha"/>
<feOffset dx="1.14983" dy="2.01221"/>
<feGaussianBlur stdDeviation="0.143729"/>
<feColorMatrix type="matrix" values="0 0 0 0 0.290469 0 0 0 0 0.358672 0 0 0 0 0.4875 0 0 0 1 0"/>
<feBlend mode="normal" in2="BackgroundImageFix" result="effect1_dropShadow_1085_4908"/>
<feBlend mode="normal" in="SourceGraphic" in2="effect1_dropShadow_1085_4908" result="shape"/>
</filter>
<filter id="filter2_d_1085_4908" x="23.0469" y="1.31934" width="31.3741" height="19.3891" filterUnits="userSpaceOnUse" color-interpolation-filters="sRGB">
<feFlood flood-opacity="0" result="BackgroundImageFix"/>
<feColorMatrix in="SourceAlpha" type="matrix" values="0 0 0 0 0 0 0 0 0 0 0 0 0 0 0 0 0 0 127 0" result="hardAlpha"/>
<feOffset dx="0.574917" dy="0.862376"/>
<feGaussianBlur stdDeviation="0.143729"/>
<feColorMatrix type="matrix" values="0 0 0 0 0.878924 0 0 0 0 0.89853 0 0 0 0 0.937743 0 0 0 0.54 0"/>
<feBlend mode="normal" in2="BackgroundImageFix" result="effect1_dropShadow_1085_4908"/>
<feBlend mode="normal" in="SourceGraphic" in2="effect1_dropShadow_1085_4908" result="shape"/>
</filter>
<filter id="filter3_i_1085_4908" x="23.0469" y="1.31934" width="30.3343" height="16.7207" filterUnits="userSpaceOnUse" color-interpolation-filters="sRGB">
<feFlood flood-opacity="0" result="BackgroundImageFix"/>
<feBlend mode="normal" in="SourceGraphic" in2="BackgroundImageFix" result="shape"/>
<feColorMatrix in="SourceAlpha" type="matrix" values="0 0 0 0 0 0 0 0 0 0 0 0 0 0 0 0 0 0 127 0" result="hardAlpha"/>
<feOffset dx="0.287459"/>
<feGaussianBlur stdDeviation="0.143729"/>
<feComposite in2="hardAlpha" operator="arithmetic" k2="-1" k3="1"/>
<feColorMatrix type="matrix" values="0 0 0 0 1 0 0 0 0 1 0 0 0 0 1 0 0 0 1 0"/>
<feBlend mode="normal" in2="shape" result="effect1_innerShadow_1085_4908"/>
</filter>
<filter id="filter4_d_1085_4908" x="0.298828" y="20.8291" width="46.2485" height="48.8221" filterUnits="userSpaceOnUse" color-interpolation-filters="sRGB">
<feFlood flood-opacity="0" result="BackgroundImageFix"/>
<feColorMatrix in="SourceAlpha" type="matrix" values="0 0 0 0 0 0 0 0 0 0 0 0 0 0 0 0 0 0 127 0" result="hardAlpha"/>
<feOffset dx="1.72475" dy="1.14983"/>
<feGaussianBlur stdDeviation="0.143729"/>
<feColorMatrix type="matrix" values="0 0 0 0 0.618889 0 0 0 0 0.695186 0 0 0 0 0.847778 0 0 0 0.22 0"/>
<feBlend mode="normal" in2="BackgroundImageFix" result="effect1_dropShadow_1085_4908"/>
<feBlend mode="normal" in="SourceGraphic" in2="effect1_dropShadow_1085_4908" result="shape"/>
</filter>
<filter id="filter5_i_1085_4908" x="16.3789" y="35.5459" width="15.2875" height="10.2959" filterUnits="userSpaceOnUse" color-interpolation-filters="sRGB">
<feFlood flood-opacity="0" result="BackgroundImageFix"/>
<feBlend mode="normal" in="SourceGraphic" in2="BackgroundImageFix" result="shape"/>
<feColorMatrix in="SourceAlpha" type="matrix" values="0 0 0 0 0 0 0 0 0 0 0 0 0 0 0 0 0 0 127 0" result="hardAlpha"/>
<feOffset dx="0.287459"/>
<feGaussianBlur stdDeviation="0.143729"/>
<feComposite in2="hardAlpha" operator="arithmetic" k2="-1" k3="1"/>
<feColorMatrix type="matrix" values="0 0 0 0 1 0 0 0 0 1 0 0 0 0 1 0 0 0 1 0"/>
<feBlend mode="normal" in2="shape" result="effect1_innerShadow_1085_4908"/>
</filter>
<filter id="filter6_i_1085_4908" x="10.4258" y="29.21" width="26.848" height="22.1318" filterUnits="userSpaceOnUse" color-interpolation-filters="sRGB">
<feFlood flood-opacity="0" result="BackgroundImageFix"/>
<feBlend mode="normal" in="SourceGraphic" in2="BackgroundImageFix" result="shape"/>
<feColorMatrix in="SourceAlpha" type="matrix" values="0 0 0 0 0 0 0 0 0 0 0 0 0 0 0 0 0 0 127 0" result="hardAlpha"/>
<feOffset dx="0.287459"/>
<feGaussianBlur stdDeviation="0.143729"/>
<feComposite in2="hardAlpha" operator="arithmetic" k2="-1" k3="1"/>
<feColorMatrix type="matrix" values="0 0 0 0 1 0 0 0 0 1 0 0 0 0 1 0 0 0 1 0"/>
<feBlend mode="normal" in2="shape" result="effect1_innerShadow_1085_4908"/>
</filter>
<filter id="filter7_i_1085_4908" x="0.298828" y="20.8291" width="43.7601" height="44.623" filterUnits="userSpaceOnUse" color-interpolation-filters="sRGB">
<feFlood flood-opacity="0" result="BackgroundImageFix"/>
<feBlend mode="normal" in="SourceGraphic" in2="BackgroundImageFix" result="shape"/>
<feColorMatrix in="SourceAlpha" type="matrix" values="0 0 0 0 0 0 0 0 0 0 0 0 0 0 0 0 0 0 127 0" result="hardAlpha"/>
<feOffset dx="0.287459"/>
<feGaussianBlur stdDeviation="0.143729"/>
<feComposite in2="hardAlpha" operator="arithmetic" k2="-1" k3="1"/>
<feColorMatrix type="matrix" values="0 0 0 0 1 0 0 0 0 1 0 0 0 0 1 0 0 0 1 0"/>
<feBlend mode="normal" in2="shape" result="effect1_innerShadow_1085_4908"/>
</filter>
<linearGradient id="paint0_linear_1085_4908" x1="98.1803" y1="76.9328" x2="76.767" y2="84.8532" gradientUnits="userSpaceOnUse">
<stop stop-color="#222D3F"/>
<stop offset="0.281083" stop-color="#2D394F"/>
<stop offset="0.39374" stop-color="#5A6D91"/>
<stop offset="0.56133" stop-color="#35425C"/>
<stop offset="1" stop-color="#47587A"/>
</linearGradient>
<linearGradient id="paint1_linear_1085_4908" x1="83.0186" y1="58.3534" x2="26.4606" y2="60.0838" gradientUnits="userSpaceOnUse">
<stop stop-color="white"/>
<stop offset="1" stop-color="white" stop-opacity="0"/>
</linearGradient>
<linearGradient id="paint2_linear_1085_4908" x1="15.6916" y1="47.3859" x2="33.8058" y2="38.1898" gradientUnits="userSpaceOnUse">
<stop stop-color="#6A61CC"/>
<stop offset="0.498015" stop-color="#7F6CF2"/>
<stop offset="1" stop-color="#BBAFFE"/>
</linearGradient>
<linearGradient id="paint3_linear_1085_4908" x1="35.8934" y1="45.6532" x2="20.8826" y2="56.2318" gradientUnits="userSpaceOnUse">
<stop stop-color="#6A61CC"/>
<stop offset="0.498015" stop-color="#7F6CF2"/>
<stop offset="1" stop-color="#BBAFFE"/>
</linearGradient>
<linearGradient id="paint4_linear_1085_4908" x1="11.8546" y1="36.5684" x2="29.3551" y2="53.1311" gradientUnits="userSpaceOnUse">
<stop stop-color="#D4CCFF"/>
<stop offset="1" stop-color="#9783FF"/>
</linearGradient>
<linearGradient id="paint5_linear_1085_4908" x1="2.41446" y1="31.4077" x2="38.9507" y2="59.8936" gradientUnits="userSpaceOnUse">
<stop stop-color="#D4CCFF"/>
<stop offset="1" stop-color="#9783FF"/>
</linearGradient>
<linearGradient id="paint6_linear_1085_4908" x1="6.84111" y1="39.8775" x2="38.9961" y2="28.7189" gradientUnits="userSpaceOnUse">
<stop stop-color="#6A61CC"/>
<stop offset="0.460989" stop-color="#7F6CF2"/>
<stop offset="1" stop-color="#BBAFFE"/>
</linearGradient>
<linearGradient id="paint7_linear_1085_4908" x1="41.5416" y1="46.9177" x2="12.7982" y2="59.2039" gradientUnits="userSpaceOnUse">
<stop stop-color="#6A61CC"/>
<stop offset="0.498015" stop-color="#7F6CF2"/>
<stop offset="1" stop-color="#BBAFFE"/>
</linearGradient>
<linearGradient id="paint8_linear_1085_4908" x1="1.2607" y1="32.3697" x2="41.8648" y2="58.1416" gradientUnits="userSpaceOnUse">
<stop stop-color="#D4CCFF"/>
<stop offset="1" stop-color="#9783FF"/>
</linearGradient>
<clipPath id="clip0_1085_4908">
<rect width="87.6749" height="87.3874" fill="white" transform="translate(0.298828 0.608398)"/>
</clipPath>
</defs>
</svg>
